<svg width="216" height="202" viewBox="0 0 216 202" fill="none" xmlns="http://www.w3.org/2000/svg">
<path d="M120.922 173.255L121.421 118.954L114.098 122.597L111.859 164.32C111.784 165.718 110.319 166.601 108.987 166.173C98.6668 162.858 92.7191 168.565 89.5757 175.732C86.9302 181.764 92.9629 187.087 99.4105 185.754L112.949 182.957C117.558 182.004 120.879 177.964 120.922 173.255Z" fill="#F2F2F2" stroke="#323232" stroke-width="1.5"/>
<path d="M128.187 173.894L122.787 119.707L130.008 113.684L136.559 163.986C136.743 165.398 138.316 166.164 139.617 165.589C149.831 161.083 156.37 166.315 160.162 173.264C163.276 178.971 157.884 184.777 151.413 184.177L137.21 182.86C132.445 182.418 128.662 178.659 128.187 173.894Z" fill="#F2F2F2" stroke="#323232" stroke-width="1.5"/>
<path d="M66.8124 109.497L92.6069 136.139C93.2412 136.794 94.2383 136.937 95.0313 136.487L211.842 70.1612C212.499 69.788 212.89 69.0764 212.852 68.3217L210.046 12.3583C209.961 10.6506 207.911 9.83096 206.671 11.0087L107.917 104.846C107.105 105.618 105.817 105.572 105.062 104.744L86.0488 83.8875C85.1907 82.9461 83.6828 83.0363 82.9428 84.0732L66.6214 106.944C66.0607 107.73 66.141 108.804 66.8124 109.497Z" fill="#5BFB67" stroke="#323232" stroke-width="1.5"/>
<path d="M42.1275 87.9196L21.6692 76.6869" stroke="#2F7CEF" stroke-width="10"/>
<path d="M54.7145 64.2836L27.4175 32.5474" stroke="#2F7CEF" stroke-width="10"/>
<path d="M75.8911 58.7394L74.4539 16.9142" stroke="#2F7CEF" stroke-width="10"/>
</svg>
