<svg width="213" height="203" viewBox="0 0 213 203" fill="none" xmlns="http://www.w3.org/2000/svg">
<g id="Group 2312">
<path id="Vector 415" d="M52 161C51.9997 168.91 56.9263 187.469 87 199" stroke="#5BFB67" stroke-width="8"/>
<path id="Vector 416" d="M4 143C4.25078 151.188 20.9808 183.562 52.6034 194.554" stroke="#5BFB67" stroke-width="8"/>
<g id="Group 2311">
<path id="Vector 412" d="M117.889 165.351L118.42 111.253L111.086 114.887L108.821 156.463C108.745 157.859 107.275 158.741 105.94 158.316C95.6149 155.022 89.658 160.706 86.5061 167.846C83.8495 173.864 89.888 179.168 96.3485 177.835L109.887 175.044C114.51 174.09 117.843 170.053 117.889 165.351Z" fill="black" stroke="white" stroke-width="2"/>
<path id="Vector 413" d="M125.194 165.979L119.771 112L127 106L133.576 156.118C133.761 157.527 135.337 158.292 136.643 157.72C146.863 153.237 153.41 158.445 157.21 165.365C160.336 171.056 154.934 176.845 148.449 176.245L134.247 174.93C129.468 174.488 125.671 170.734 125.194 165.979Z" fill="black" stroke="white" stroke-width="2"/>
<path id="Vector 411" d="M63.8305 101.823L89.624 128.41C90.2582 129.064 91.2536 129.207 92.0457 128.758L208.836 62.59C209.494 62.2173 209.886 61.5054 209.847 60.7501L207.033 4.9113C206.947 3.20463 204.899 2.38401 203.659 3.55959L104.926 97.1862C104.114 97.9562 102.828 97.9097 102.073 97.0832L83.0564 76.2655C82.1981 75.326 80.6926 75.4156 79.9528 76.4503L63.6385 99.2672C63.0765 100.053 63.1572 101.129 63.8305 101.823Z" fill="black" stroke="white" stroke-width="2"/>
</g>
</g>
</svg>
