<svg width="345" height="207" viewBox="0 0 345 207" fill="none" xmlns="http://www.w3.org/2000/svg">
<path d="M221.31 102.736H216.046L205.304 94.1677L201.029 97.6235V102.736H197.346V75.375H201.029V93.758L214.429 82.6783H219.423L207.981 91.9767L221.31 102.736Z" fill="#2F7CEF"/>
<path d="M194.058 102.737H182.023C180.633 102.725 179.328 102.458 178.107 101.936C176.885 101.401 175.819 100.683 174.909 99.7802C174.011 98.8658 173.298 97.803 172.771 96.5917C172.244 95.3804 171.981 94.086 171.981 92.7084C171.981 91.3309 172.244 90.0365 172.771 88.8252C173.298 87.602 174.011 86.5392 174.909 85.6367C175.819 84.7222 176.885 84.0038 178.107 83.4813C179.328 82.9469 180.633 82.6797 182.023 82.6797H194.058V86.3135H182.023C181.136 86.3254 180.304 86.5036 179.526 86.8479C178.759 87.1804 178.089 87.6376 177.514 88.2195C176.939 88.7896 176.484 89.4605 176.148 90.2324C175.825 91.0043 175.663 91.8296 175.663 92.7084C175.663 93.5872 175.825 94.4125 176.148 95.1844C176.484 95.9563 176.939 96.6332 177.514 97.2151C178.089 97.7851 178.759 98.2423 179.526 98.5867C180.304 98.9192 181.136 99.0855 182.023 99.0855H194.058V102.737Z" fill="#2F7CEF"/>
<path d="M170.378 89.0568C170.378 89.9474 170.211 90.7787 169.875 91.5506C169.54 92.3225 169.079 92.9994 168.492 93.5813C167.917 94.1513 167.235 94.6025 166.444 94.9351C165.666 95.2676 164.834 95.4338 163.947 95.4338H149.846C150.109 95.9682 150.439 96.461 150.834 96.9123C151.229 97.3636 151.672 97.7495 152.163 98.0701C152.654 98.3908 153.187 98.6402 153.762 98.8183C154.349 98.9964 154.96 99.0855 155.594 99.0855H167.63V102.737H155.594C154.205 102.725 152.9 102.458 151.678 101.936C150.457 101.401 149.391 100.683 148.481 99.7802C147.583 98.8658 146.87 97.803 146.343 96.5917C145.816 95.3804 145.553 94.086 145.553 92.7084C145.553 91.3309 145.816 90.0365 146.343 88.8252C146.87 87.6139 147.583 86.557 148.481 85.6545C149.391 84.7401 150.457 84.0216 151.678 83.4991C152.9 82.9647 154.205 82.6916 155.594 82.6797H163.947C164.834 82.6797 165.666 82.8459 166.444 83.1785C167.235 83.511 167.917 83.9682 168.492 84.5501C169.079 85.1201 169.54 85.791 169.875 86.5629C170.211 87.3348 170.378 88.1661 170.378 89.0568ZM163.947 91.8C164.319 91.8 164.672 91.7287 165.007 91.5862C165.343 91.4437 165.636 91.2478 165.887 90.9984C166.139 90.749 166.337 90.458 166.48 90.1255C166.624 89.793 166.696 89.4368 166.696 89.0568C166.696 88.6886 166.624 88.3383 166.48 88.0058C166.337 87.6733 166.139 87.3823 165.887 87.1329C165.636 86.8836 165.343 86.6876 165.007 86.5451C164.672 86.3907 164.319 86.3135 163.947 86.3135H155.594C154.78 86.3135 154.014 86.4561 153.295 86.7411C152.588 87.0261 151.954 87.418 151.391 87.9167C150.84 88.4036 150.379 88.9855 150.008 89.6624C149.648 90.3274 149.415 91.0399 149.307 91.8H163.947Z" fill="#2F7CEF"/>
<path d="M142.606 102.736H138.923V92.7071C138.923 91.8283 138.755 91.003 138.42 90.2311C138.085 89.4592 137.63 88.7882 137.055 88.2182C136.48 87.6363 135.803 87.1791 135.025 86.8466C134.258 86.5022 133.432 86.3241 132.546 86.3122H122.433V102.736H118.75V75.375H122.433V82.6783H132.546C133.935 82.6783 135.24 82.9455 136.462 83.4799C137.684 84.0024 138.749 84.7209 139.66 85.6353C140.57 86.5378 141.288 87.6007 141.815 88.8238C142.342 90.0351 142.606 91.3295 142.606 92.7071V102.736Z" fill="#2F7CEF"/>
<path d="M115.462 102.737H103.426C102.037 102.725 100.732 102.458 99.5103 101.936C98.2888 101.401 97.223 100.683 96.3128 99.7802C95.4146 98.8658 94.7021 97.803 94.1752 96.5917C93.6482 95.3804 93.3848 94.086 93.3848 92.7084C93.3848 91.3309 93.6482 90.0365 94.1752 88.8252C94.7021 87.602 95.4146 86.5392 96.3128 85.6367C97.223 84.7222 98.2888 84.0038 99.5103 83.4813C100.732 82.9469 102.037 82.6797 103.426 82.6797H115.462V86.3135H103.426C102.54 86.3254 101.708 86.5036 100.929 86.8479C100.163 87.1804 99.4924 87.6376 98.9175 88.2195C98.3427 88.7896 97.8876 89.4605 97.5523 90.2324C97.229 91.0043 97.0673 91.8296 97.0673 92.7084C97.0673 93.5872 97.229 94.4125 97.5523 95.1844C97.8876 95.9563 98.3427 96.6332 98.9175 97.2151C99.4924 97.7851 100.163 98.2423 100.929 98.5867C101.708 98.9192 102.54 99.0855 103.426 99.0855H115.462V102.737Z" fill="#2F7CEF"/>
<path fill-rule="evenodd" clip-rule="evenodd" d="M222.386 103.121H215.91L205.305 94.6617L201.411 97.809V103.121H196.962V75H201.411V92.9514L214.29 82.3033H220.495L208.585 91.9808L222.386 103.121ZM207.98 91.9818L219.422 82.6834H214.428L201.028 93.7631V75.38H197.345V102.741H201.028V97.6285L205.303 94.1728L216.045 102.741H221.308L207.98 91.9818Z" fill="#2F7CEF"/>
<path fill-rule="evenodd" clip-rule="evenodd" d="M182.021 102.742H194.057V99.0905H182.021C181.135 99.0905 180.303 98.9242 179.524 98.5917C178.758 98.2473 178.087 97.7901 177.512 97.2201C176.937 96.6382 176.482 95.9613 176.147 95.1894C175.824 94.4175 175.662 93.5922 175.662 92.7134C175.662 91.8347 175.824 91.0093 176.147 90.2374C176.482 89.4655 176.937 88.7946 177.512 88.2246C178.087 87.6427 178.758 87.1855 179.524 86.8529C180.303 86.5086 181.135 86.3304 182.021 86.3186H194.057V82.6847H182.021C180.632 82.6847 179.326 82.9519 178.105 83.4863C176.883 84.0088 175.818 84.7273 174.907 85.6417L174.635 85.3747C175.58 84.425 176.687 83.6793 177.952 83.138C179.224 82.5818 180.581 82.3047 182.021 82.3047H194.44V86.6986H182.024C181.188 86.7101 180.408 86.8778 179.68 87.2L179.678 87.2011C178.955 87.5145 178.326 87.944 177.786 88.4905L177.783 88.4933C177.245 89.0273 176.817 89.6569 176.5 90.3855C176.198 91.1082 176.045 91.883 176.045 92.7134C176.045 93.5439 176.198 94.3187 176.5 95.0413C176.817 95.7701 177.245 96.4062 177.784 96.9527C178.324 97.4879 178.955 97.9184 179.679 98.2441C180.406 98.5543 181.186 98.7105 182.021 98.7105H194.44V103.122H182.018C180.58 103.11 179.224 102.833 177.953 102.29L177.95 102.288C176.687 101.736 175.581 100.991 174.636 100.054L174.633 100.05C173.701 99.1016 172.963 97.9996 172.418 96.7472C171.869 95.4863 171.596 94.1404 171.596 92.7134C171.596 91.2865 171.869 89.9406 172.418 88.6797C172.963 87.4154 173.701 86.3125 174.635 85.3747L174.907 85.6417C174.009 86.5442 173.297 87.607 172.77 88.8302C172.243 90.0415 171.979 91.3359 171.979 92.7134C171.979 94.091 172.243 95.3854 172.77 96.5967C173.297 97.808 174.009 98.8708 174.907 99.7852C175.818 100.688 176.883 101.406 178.105 101.941C179.326 102.463 180.632 102.73 182.021 102.742Z" fill="#2F7CEF"/>
<path fill-rule="evenodd" clip-rule="evenodd" d="M169.874 91.5556C170.209 90.7837 170.377 89.9524 170.377 89.0618C170.377 88.1711 170.209 87.3399 169.874 86.568C169.538 85.7961 169.077 85.1251 168.491 84.5551C167.916 83.9732 167.233 83.516 166.443 83.1835C165.664 82.851 164.832 82.6847 163.946 82.6847H155.593C154.204 82.6966 152.898 82.9697 151.677 83.5041C150.455 84.0266 149.389 84.7451 148.479 85.6595L148.206 85.3925C149.152 84.4428 150.259 83.6971 151.523 83.1558C152.794 82.6001 154.151 82.317 155.589 82.3047L155.593 82.3047L163.946 82.3047C164.881 82.3047 165.765 82.4805 166.594 82.8341C167.427 83.1848 168.151 83.6686 168.762 84.2863C169.384 84.8914 169.872 85.603 170.226 86.4176C170.583 87.2398 170.76 88.1226 170.76 89.0618C170.76 90.001 170.583 90.8838 170.226 91.7059C169.872 92.5211 169.383 93.2384 168.762 93.855C168.15 94.4612 167.426 94.939 166.594 95.2895C166.593 95.2896 166.593 95.2898 166.592 95.2899L166.443 94.9401L166.594 95.2891C166.594 95.2892 166.594 95.2893 166.594 95.2895C165.765 95.6431 164.881 95.8189 163.946 95.8189H150.492C150.415 95.6949 150.343 95.5682 150.274 95.4388H149.844C149.908 95.5679 149.976 95.6946 150.047 95.8189C150.271 96.2089 150.533 96.5751 150.832 96.9173C151.228 97.3686 151.671 97.7545 152.162 98.0752C152.653 98.3958 153.186 98.6452 153.761 98.8233C154.347 99.0015 154.958 99.0905 155.593 99.0905H167.628V102.742H155.593C154.204 102.73 152.898 102.463 151.677 101.941C150.455 101.406 149.389 100.688 148.479 99.7852C147.581 98.8708 146.869 97.808 146.342 96.5967C145.815 95.3854 145.551 94.091 145.551 92.7134C145.551 91.3359 145.815 90.0415 146.342 88.8302C146.869 87.6189 147.581 86.562 148.479 85.6595L148.206 85.3925C147.274 86.33 146.535 87.4268 145.99 88.6797C145.441 89.9406 145.168 91.2865 145.168 92.7134C145.168 94.1404 145.441 95.4863 145.99 96.7472C146.535 97.9996 147.273 99.1016 148.205 100.05L148.208 100.054C149.153 100.991 150.259 101.736 151.522 102.288L151.525 102.29C152.795 102.833 154.152 103.11 155.589 103.122H168.012V98.7105H155.593C154.995 98.7105 154.423 98.6268 153.874 98.4603C153.333 98.2925 152.833 98.0583 152.373 97.7578C151.911 97.4567 151.495 97.0939 151.122 96.6682C150.887 96.4004 150.678 96.1173 150.492 95.8189M165.006 91.5912C164.67 91.7337 164.317 91.805 163.946 91.805H149.306C149.324 91.677 149.345 91.5503 149.371 91.425C149.496 90.8063 149.707 90.2204 150.006 89.6674C150.377 88.9905 150.838 88.4086 151.389 87.9217C151.952 87.423 152.587 87.0311 153.293 86.7461C154.012 86.4611 154.778 86.3186 155.593 86.3186H163.946C164.317 86.3186 164.67 86.3958 165.006 86.5501C165.341 86.6926 165.634 86.8886 165.886 87.138C166.137 87.3874 166.335 87.6783 166.479 88.0108C166.622 88.3433 166.694 88.6936 166.694 89.0618C166.694 89.4418 166.622 89.7981 166.479 90.1306C166.335 90.4631 166.137 90.754 165.886 91.0034C165.634 91.2528 165.341 91.4487 165.006 91.5912ZM153.437 87.0984C154.108 86.8326 154.825 86.6986 155.593 86.6986H163.946C164.262 86.6986 164.56 86.7638 164.844 86.8948L164.849 86.8972L164.855 86.8994C165.146 87.0234 165.399 87.1924 165.615 87.4067C165.831 87.621 166.001 87.8713 166.126 88.1605C166.249 88.4449 166.311 88.7442 166.311 89.0618C166.311 89.393 166.249 89.698 166.126 89.9809C166.001 90.2701 165.831 90.5204 165.615 90.7347C165.399 90.949 165.146 91.118 164.855 91.2419C164.568 91.3638 164.266 91.425 163.946 91.425H149.762C149.881 90.8701 150.075 90.3447 150.344 89.8475C150.695 89.2076 151.128 88.6613 151.644 88.2054C152.174 87.7362 152.771 87.3672 153.437 87.0984Z" fill="#2F7CEF"/>
<path fill-rule="evenodd" clip-rule="evenodd" d="M142.987 103.121H138.538V92.7121C138.538 91.8826 138.38 91.1087 138.067 90.3864C137.75 89.6568 137.321 89.0265 136.782 88.4919L136.779 88.4891C136.241 87.9437 135.606 87.5142 134.872 87.2006L134.865 87.1978C134.15 86.8765 133.377 86.7087 132.542 86.6972H122.814V103.121H118.365V75H122.814V82.3033H132.544C133.984 82.3033 135.342 82.5805 136.614 83.1366C137.878 83.6778 138.985 84.4232 139.93 85.3725C140.875 86.3103 141.62 87.4134 142.165 88.6783C142.714 89.9392 142.987 91.2851 142.987 92.7121V103.121ZM141.814 88.8288C141.287 87.6057 140.568 86.5428 139.658 85.6403C138.748 84.7259 137.682 84.0075 136.46 83.4849C135.239 82.9505 133.934 82.6834 132.544 82.6834H122.431V75.38H118.748V102.741H122.431V86.3172H132.544C133.431 86.3291 134.257 86.5072 135.023 86.8516C135.802 87.1841 136.478 87.6413 137.053 88.2232C137.628 88.7932 138.083 89.4642 138.418 90.2361C138.754 91.008 138.921 91.8333 138.921 92.7121V102.741H142.604V92.7121C142.604 91.3345 142.341 90.0401 141.814 88.8288Z" fill="#2F7CEF"/>
<path fill-rule="evenodd" clip-rule="evenodd" d="M103.425 102.742H115.46V99.0905H103.425C102.539 99.0905 101.706 98.9242 100.928 98.5917C100.161 98.2473 99.4908 97.7901 98.916 97.2201C98.3412 96.6382 97.8861 95.9613 97.5508 95.1894C97.2274 94.4175 97.0657 93.5922 97.0657 92.7134C97.0657 91.8347 97.2274 91.0093 97.5508 90.2374C97.8861 89.4655 98.3412 88.7946 98.916 88.2246C99.4908 87.6427 100.161 87.1855 100.928 86.8529C101.706 86.5086 102.539 86.3304 103.425 86.3186H115.46V82.6847H103.425C102.036 82.6847 100.73 82.9519 99.5088 83.4863C98.2873 84.0088 97.2214 84.7273 96.3113 85.6417C95.4131 86.5442 94.7005 87.607 94.1736 88.8302C93.6467 90.0415 93.3832 91.3359 93.3832 92.7134C93.3832 94.091 93.6467 95.3854 94.1736 96.5967C94.7005 97.808 95.4131 98.8708 96.3113 99.7852C97.2214 100.688 98.2873 101.406 99.5088 101.941C100.73 102.463 102.036 102.73 103.425 102.742ZM93.8215 88.6803C93.2731 89.941 93 91.2867 93 92.7134C93 94.1404 93.2732 95.4863 93.8217 96.7472C94.3666 97.9996 95.1049 99.1016 96.0368 100.05L96.0403 100.054C96.9852 100.991 98.0909 101.736 99.3541 102.288L99.357 102.29C100.627 102.833 101.984 103.11 103.422 103.122H115.844V98.7105H103.425C102.59 98.7105 101.81 98.5543 101.083 98.2441C100.359 97.9184 99.7283 97.4879 99.1883 96.9528C98.6488 96.4063 98.2206 95.7701 97.9037 95.0414C97.6013 94.3187 97.449 93.5439 97.449 92.7134C97.449 91.8829 97.6013 91.1082 97.9037 90.3855C98.2206 89.6568 98.6485 89.0273 99.187 88.4933L99.1897 88.4905C99.7296 87.944 100.359 87.5145 101.082 87.2011L101.084 87.2C101.812 86.8778 102.592 86.7101 103.427 86.6986H115.844V82.3047H103.425C101.985 82.3047 100.627 82.5818 99.3556 83.138C98.0906 83.6793 96.9839 84.4249 96.0385 85.3747C95.1051 86.3126 94.3663 87.4158 93.8215 88.6803Z" fill="#2F7CEF"/>
<path d="M252.621 117.955C252.621 118.846 252.454 119.677 252.118 120.449C251.783 121.221 251.322 121.898 250.735 122.48C250.16 123.05 249.478 123.501 248.687 123.833C247.909 124.166 247.077 124.332 246.191 124.332H232.089C232.353 124.867 232.682 125.359 233.077 125.811C233.472 126.262 233.915 126.648 234.406 126.969C234.897 127.289 235.43 127.539 236.005 127.717C236.592 127.895 237.203 127.984 237.838 127.984H249.873V131.636H237.838C236.448 131.624 235.143 131.357 233.921 130.834C232.7 130.3 231.634 129.581 230.724 128.679C229.826 127.764 229.113 126.701 228.586 125.49C228.059 124.279 227.796 122.984 227.796 121.607C227.796 120.229 228.059 118.935 228.586 117.724C229.113 116.512 229.826 115.455 230.724 114.553C231.634 113.638 232.7 112.92 233.921 112.398C235.143 111.863 236.448 111.59 237.838 111.578H246.191C247.077 111.578 247.909 111.744 248.687 112.077C249.478 112.409 250.16 112.867 250.735 113.448C251.322 114.019 251.783 114.689 252.118 115.461C252.454 116.233 252.621 117.065 252.621 117.955ZM246.191 120.698C246.562 120.698 246.915 120.627 247.25 120.485C247.586 120.342 247.879 120.146 248.131 119.897C248.382 119.647 248.58 119.356 248.723 119.024C248.867 118.691 248.939 118.335 248.939 117.955C248.939 117.587 248.867 117.237 248.723 116.904C248.58 116.572 248.382 116.281 248.131 116.031C247.879 115.782 247.586 115.586 247.25 115.444C246.915 115.289 246.562 115.212 246.191 115.212H237.838C237.023 115.212 236.257 115.354 235.538 115.639C234.832 115.925 234.197 116.316 233.634 116.815C233.083 117.302 232.622 117.884 232.251 118.561C231.892 119.226 231.658 119.938 231.55 120.698H246.191Z" fill="#2F7CEF"/>
<path d="M214.287 131.634H210.604V115.211H205.089V111.577H210.604V104.273H214.287V111.577H227.167V115.211H214.287V131.634Z" fill="#2F7CEF"/>
<path d="M202.751 131.636H184.356C183.458 131.636 182.62 131.469 181.841 131.137C181.063 130.804 180.38 130.353 179.793 129.783C179.207 129.201 178.746 128.524 178.41 127.752C178.075 126.969 177.907 126.137 177.907 125.259C177.907 124.368 178.075 123.537 178.41 122.765C178.746 121.993 179.207 121.316 179.793 120.734C180.38 120.152 181.063 119.695 181.841 119.362C182.62 119.03 183.458 118.864 184.356 118.864H197.218V122.515H184.356C183.973 122.515 183.614 122.593 183.278 122.747C182.943 122.889 182.65 123.085 182.398 123.335C182.147 123.584 181.949 123.875 181.805 124.208C181.662 124.54 181.59 124.89 181.59 125.259C181.59 125.639 181.662 125.995 181.805 126.327C181.949 126.648 182.147 126.933 182.398 127.182C182.65 127.432 182.943 127.628 183.278 127.77C183.614 127.913 183.973 127.984 184.356 127.984H199.068V117.955C199.068 117.587 198.99 117.237 198.835 116.904C198.691 116.572 198.493 116.281 198.242 116.031C197.99 115.782 197.697 115.586 197.362 115.444C197.026 115.289 196.673 115.212 196.302 115.212H181.59V111.578H196.302C197.2 111.578 198.038 111.744 198.817 112.077C199.595 112.409 200.278 112.867 200.865 113.448C201.451 114.019 201.912 114.689 202.248 115.461C202.583 116.233 202.751 117.065 202.751 117.955V131.636Z" fill="#2F7CEF"/>
<path d="M149.704 131.636H146.021V111.578H165.422C166.811 111.578 168.117 111.845 169.338 112.38C170.56 112.902 171.619 113.621 172.518 114.535C173.428 115.438 174.146 116.5 174.673 117.724C175.2 118.935 175.464 120.229 175.464 121.607V131.636H171.781V121.607C171.781 120.728 171.613 119.903 171.278 119.131C170.943 118.359 170.488 117.688 169.913 117.118C169.338 116.536 168.661 116.079 167.883 115.746C167.117 115.402 166.296 115.224 165.422 115.212H162.584V131.636H158.901V115.212H149.704V131.636Z" fill="#2F7CEF"/>
<path fill-rule="evenodd" clip-rule="evenodd" d="M252.114 120.438C252.449 119.667 252.617 118.835 252.617 117.945C252.617 117.054 252.449 116.223 252.114 115.451C251.779 114.679 251.318 114.008 250.731 113.438C250.156 112.856 249.473 112.399 248.683 112.066C247.905 111.734 247.072 111.568 246.186 111.568H237.833C236.444 111.579 235.138 111.853 233.917 112.387C232.695 112.909 231.63 113.628 230.719 114.542L230.447 114.275C231.392 113.326 232.499 112.58 233.764 112.039C235.034 111.483 236.391 111.2 237.83 111.188L237.833 111.188L246.186 111.188C247.122 111.188 248.005 111.363 248.833 111.717C249.667 112.067 250.391 112.551 251.002 113.169C251.624 113.774 252.112 114.486 252.466 115.3C252.823 116.123 253 117.005 253 117.945C253 118.884 252.823 119.767 252.466 120.589C252.112 121.404 251.624 122.121 251.002 122.738C250.39 123.344 249.666 123.822 248.833 124.172C248.005 124.526 247.121 124.702 246.186 124.702H232.732C232.918 125 233.128 125.283 233.362 125.551C233.735 125.977 234.152 126.34 234.613 126.641C235.073 126.941 235.573 127.175 236.114 127.343C236.663 127.51 237.235 127.593 237.833 127.593H250.252V132.005H237.83C236.392 131.993 235.036 131.716 233.765 131.172L233.762 131.171C232.499 130.618 231.393 129.874 230.448 128.937L230.445 128.933C229.513 127.984 228.775 126.882 228.23 125.63C227.681 124.369 227.408 123.023 227.408 121.596C227.408 120.169 227.681 118.823 228.23 117.563C228.775 116.31 229.514 115.213 230.447 114.275L230.719 114.542C229.821 115.445 229.109 116.502 228.582 117.713C228.055 118.924 227.791 120.219 227.791 121.596C227.791 122.974 228.055 124.268 228.582 125.48C229.109 126.691 229.821 127.754 230.719 128.668C231.63 129.571 232.695 130.289 233.917 130.823C235.138 131.346 236.444 131.613 237.833 131.625H249.869V127.973H237.833C237.198 127.973 236.588 127.884 236.001 127.706C235.426 127.528 234.893 127.279 234.402 126.958C233.911 126.637 233.468 126.251 233.073 125.8C232.773 125.458 232.511 125.092 232.287 124.702C232.216 124.577 232.148 124.451 232.085 124.322H246.186C247.072 124.322 247.905 124.155 248.683 123.823C249.473 123.49 250.156 123.039 250.731 122.469C251.318 121.887 251.779 121.21 252.114 120.438ZM247.246 120.474C246.911 120.617 246.557 120.688 246.186 120.688H231.546C231.564 120.56 231.586 120.433 231.611 120.308C231.736 119.689 231.948 119.103 232.246 118.55C232.618 117.873 233.079 117.291 233.63 116.805C234.192 116.306 234.827 115.914 235.534 115.629C236.252 115.344 237.019 115.201 237.833 115.201H246.186C246.557 115.201 246.911 115.279 247.246 115.433C247.581 115.575 247.875 115.771 248.126 116.021C248.378 116.27 248.575 116.561 248.719 116.894C248.863 117.226 248.934 117.576 248.934 117.945C248.934 118.325 248.863 118.681 248.719 119.013C248.575 119.346 248.378 119.637 248.126 119.886C247.875 120.136 247.581 120.332 247.246 120.474ZM235.677 115.981C236.348 115.715 237.065 115.581 237.833 115.581H246.186C246.502 115.581 246.8 115.647 247.085 115.778L247.09 115.78L247.095 115.782C247.387 115.906 247.639 116.075 247.855 116.289C248.071 116.504 248.242 116.754 248.367 117.043C248.49 117.328 248.551 117.627 248.551 117.945C248.551 118.276 248.489 118.581 248.367 118.864C248.242 119.153 248.071 119.403 247.855 119.618C247.639 119.832 247.387 120.001 247.095 120.125C246.808 120.247 246.506 120.308 246.186 120.308H232.002C232.121 119.753 232.315 119.227 232.584 118.73C232.935 118.09 233.369 117.544 233.885 117.088C234.414 116.619 235.011 116.25 235.677 115.981Z" fill="#2F7CEF"/>
<path fill-rule="evenodd" clip-rule="evenodd" d="M214.66 132.004H210.211V115.58H204.696V111.186H210.211V103.883H214.66V111.186H227.54V115.58H214.66V132.004ZM214.277 111.566V104.263H210.594V111.566H205.08V115.2H210.594V131.624H214.277V115.2H227.157V111.566H214.277Z" fill="#2F7CEF"/>
<path fill-rule="evenodd" clip-rule="evenodd" d="M184.349 131.625H202.744V117.945C202.744 117.054 202.576 116.223 202.241 115.451C201.906 114.679 201.444 114.008 200.858 113.438C200.271 112.856 199.588 112.399 198.81 112.066C198.031 111.734 197.193 111.568 196.295 111.568H181.583V115.201H196.295C196.666 115.201 197.019 115.279 197.355 115.433C197.69 115.575 197.984 115.771 198.235 116.021C198.486 116.27 198.684 116.561 198.828 116.894C198.983 117.226 199.061 117.576 199.061 117.945V127.973H184.349C183.966 127.973 183.607 127.902 183.271 127.76C182.936 127.617 182.643 127.421 182.391 127.172C182.14 126.922 181.942 126.637 181.798 126.317C181.655 125.984 181.583 125.628 181.583 125.248C181.583 124.88 181.655 124.529 181.798 124.197C181.942 123.864 182.14 123.573 182.391 123.324C182.643 123.075 182.936 122.879 183.271 122.736C183.607 122.582 183.966 122.505 184.349 122.505H197.211V118.853H184.349C183.451 118.853 182.613 119.019 181.834 119.352C181.056 119.684 180.373 120.142 179.786 120.723C179.2 121.305 178.739 121.982 178.403 122.754C178.068 123.526 177.9 124.357 177.9 125.248C177.9 126.127 178.068 126.958 178.403 127.742C178.739 128.514 179.2 129.191 179.786 129.772C180.373 130.342 181.056 130.794 181.834 131.126C182.613 131.459 183.451 131.625 184.349 131.625ZM182.15 126.165C182.028 125.882 181.966 125.578 181.966 125.248C181.966 124.93 182.028 124.631 182.151 124.347C182.276 124.057 182.446 123.807 182.662 123.593C182.878 123.379 183.131 123.21 183.422 123.086L183.428 123.083L183.433 123.081C183.716 122.951 184.02 122.885 184.349 122.885H197.594V118.473H184.349C183.402 118.473 182.512 118.649 181.683 119.003C180.861 119.354 180.137 119.838 179.516 120.455C178.894 121.071 178.405 121.789 178.051 122.604C177.694 123.426 177.517 124.309 177.517 125.248C177.517 126.176 177.694 127.058 178.05 127.89L178.051 127.892C178.405 128.707 178.894 129.424 179.515 130.041L179.518 130.044C180.14 130.648 180.862 131.125 181.683 131.475C182.512 131.829 183.402 132.005 184.349 132.005H203.127V117.945C203.127 117.005 202.95 116.123 202.593 115.3C202.239 114.485 201.75 113.773 201.127 113.168C200.506 112.552 199.783 112.068 198.961 111.717C198.132 111.363 197.242 111.188 196.295 111.188H181.2V115.581H196.295C196.611 115.581 196.909 115.647 197.193 115.778L197.199 115.78L197.204 115.782C197.496 115.906 197.748 116.075 197.964 116.289C198.18 116.504 198.351 116.754 198.476 117.043L198.478 117.049L198.48 117.054C198.612 117.336 198.678 117.631 198.678 117.945V127.593H184.349C184.015 127.593 183.708 127.531 183.422 127.41C183.131 127.286 182.878 127.117 182.662 126.903C182.444 126.687 182.274 126.442 182.15 126.165Z" fill="#2F7CEF"/>
<path fill-rule="evenodd" clip-rule="evenodd" d="M149.7 131.625V115.201H158.897V131.625H162.579V115.201H165.418C166.292 115.213 167.112 115.391 167.879 115.736C168.657 116.068 169.334 116.525 169.908 117.107C170.483 117.677 170.938 118.348 171.274 119.12C171.609 119.892 171.777 120.717 171.777 121.596V131.625H175.459V121.596C175.459 120.219 175.196 118.924 174.669 117.713C174.142 116.49 173.423 115.427 172.513 114.524C171.615 113.61 170.555 112.892 169.334 112.369C168.112 111.835 166.807 111.568 165.418 111.568H146.017V131.625H149.7ZM169.487 112.021C168.215 111.465 166.857 111.188 165.418 111.188H145.634V132.005H150.083V115.581H158.514V132.005H162.963V115.581H165.415C166.238 115.593 167.005 115.76 167.72 116.082L167.727 116.085C168.461 116.398 169.096 116.828 169.635 117.373L169.637 117.376C170.177 117.911 170.605 118.541 170.922 119.271C171.235 119.993 171.393 120.767 171.393 121.596V132.005H175.842V121.596C175.842 120.17 175.569 118.824 175.021 117.563C174.476 116.298 173.731 115.195 172.786 114.257C171.852 113.308 170.751 112.562 169.487 112.021Z" fill="#2F7CEF"/>
<path fill-rule="evenodd" clip-rule="evenodd" d="M252.88 85.0013L236.365 103.424L227.712 92.4606L230.73 90.1185L236.552 97.4952L250.016 82.4766L252.88 85.0013Z" fill="#5BFB67"/>
</svg>
