<svg width="89" height="33" viewBox="0 0 89 33" fill="none" xmlns="http://www.w3.org/2000/svg">
<g id="Group 2305">
<g id="check">
<path id="Vector" d="M71.3735 16.0709H68.4458L62.4705 11.2609L60.0923 13.2009V16.0709H58.0439V0.710938H60.0923V11.0309L67.5465 4.81093H70.3244L63.9593 10.0309L71.3735 16.0709Z" fill="#2F7CEF"/>
<path id="Vector_2" d="M56.214 16.0705H49.5192C48.7465 16.0639 48.0204 15.9139 47.3409 15.6205C46.6615 15.3205 46.0686 14.9172 45.5623 14.4105C45.0627 13.8972 44.6664 13.3005 44.3733 12.6205C44.0801 11.9405 43.9336 11.2139 43.9336 10.4405C43.9336 9.66721 44.0801 8.94054 44.3733 8.26054C44.6664 7.57388 45.0627 6.97721 45.5623 6.47055C46.0686 5.95721 46.6615 5.55388 47.3409 5.26055C48.0204 4.96055 48.7465 4.81055 49.5192 4.81055H56.214V6.85054H49.5192C49.0263 6.85721 48.5633 6.95721 48.1303 7.15054C47.704 7.33721 47.3309 7.59388 47.0112 7.92054C46.6914 8.24054 46.4383 8.61721 46.2518 9.05054C46.0719 9.48388 45.982 9.94721 45.982 10.4405C45.982 10.9339 46.0719 11.3972 46.2518 11.8305C46.4383 12.2639 46.6914 12.6439 47.0112 12.9705C47.3309 13.2905 47.704 13.5472 48.1303 13.7405C48.5633 13.9272 49.0263 14.0205 49.5192 14.0205H56.214V16.0705Z" fill="#2F7CEF"/>
<path id="Vector_3" d="M43.0426 8.39054C43.0426 8.89054 42.9494 9.35721 42.7628 9.79054C42.5763 10.2239 42.3199 10.6039 41.9934 10.9305C41.6737 11.2505 41.294 11.5039 40.8543 11.6905C40.4213 11.8772 39.9584 11.9705 39.4654 11.9705H31.6215C31.7681 12.2705 31.9513 12.5472 32.1711 12.8005C32.3909 13.0539 32.6374 13.2705 32.9105 13.4505C33.1836 13.6305 33.4801 13.7705 33.7998 13.8705C34.1262 13.9705 34.466 14.0205 34.819 14.0205H41.5138V16.0705H34.819C34.0463 16.0639 33.3202 15.9139 32.6407 15.6205C31.9613 15.3205 31.3684 14.9172 30.8621 14.4105C30.3625 13.8972 29.9662 13.3005 29.6731 12.6205C29.38 11.9405 29.2334 11.2139 29.2334 10.4405C29.2334 9.66721 29.38 8.94054 29.6731 8.26054C29.9662 7.58054 30.3625 6.98721 30.8621 6.48055C31.3684 5.96721 31.9613 5.56388 32.6407 5.27055C33.3202 4.97055 34.0463 4.81721 34.819 4.81055H39.4654C39.9584 4.81055 40.4213 4.90388 40.8543 5.09055C41.294 5.27721 41.6737 5.53388 41.9934 5.86055C42.3199 6.18055 42.5763 6.55721 42.7628 6.99054C42.9494 7.42388 43.0426 7.89054 43.0426 8.39054ZM39.4654 9.93054C39.6719 9.93054 39.8684 9.89054 40.055 9.81054C40.2415 9.73054 40.4047 9.62054 40.5446 9.48054C40.6845 9.34054 40.7944 9.17721 40.8743 8.99054C40.9543 8.80388 40.9942 8.60388 40.9942 8.39054C40.9942 8.18388 40.9543 7.98721 40.8743 7.80054C40.7944 7.61388 40.6845 7.45054 40.5446 7.31054C40.4047 7.17054 40.2415 7.06054 40.055 6.98054C39.8684 6.89388 39.6719 6.85054 39.4654 6.85054H34.819C34.3661 6.85054 33.9397 6.93054 33.54 7.09054C33.147 7.25054 32.794 7.47054 32.4809 7.75054C32.1744 8.02388 31.918 8.35054 31.7115 8.73054C31.5116 9.10388 31.3817 9.50388 31.3218 9.93054H39.4654Z" fill="#2F7CEF"/>
<path id="Vector_4" d="M27.5939 16.0709H25.5455V10.4409C25.5455 9.9476 25.4522 9.48426 25.2657 9.05093C25.0792 8.6176 24.826 8.24093 24.5063 7.92093C24.1865 7.59426 23.8101 7.3376 23.3772 7.15093C22.9508 6.9576 22.4912 6.8576 21.9982 6.85093H16.3726V16.0709H14.3242V0.710938H16.3726V4.81093H21.9982C22.771 4.81093 23.4971 4.96093 24.1765 5.26093C24.856 5.55427 25.4489 5.9576 25.9551 6.47093C26.4614 6.9776 26.8611 7.57426 27.1542 8.26093C27.4473 8.94093 27.5939 9.6676 27.5939 10.4409V16.0709Z" fill="#2F7CEF"/>
<path id="Vector_5" d="M12.4953 16.0705H5.80049C5.02775 16.0639 4.30165 15.9139 3.62218 15.6205C2.94272 15.3205 2.34984 14.9172 1.84357 14.4105C1.34396 13.8972 0.947605 13.3005 0.654501 12.6205C0.361396 11.9405 0.214844 11.2139 0.214844 10.4405C0.214844 9.66721 0.361396 8.94054 0.654501 8.26054C0.947605 7.57388 1.34396 6.97721 1.84357 6.47055C2.34984 5.95721 2.94272 5.55388 3.62218 5.26055C4.30165 4.96055 5.02775 4.81055 5.80049 4.81055H12.4953V6.85054H5.80049C5.30754 6.85721 4.84456 6.95721 4.41157 7.15054C3.98523 7.33721 3.61219 7.59388 3.29244 7.92054C2.97269 8.24054 2.71956 8.61721 2.53303 9.05054C2.35318 9.48388 2.26325 9.94721 2.26325 10.4405C2.26325 10.9339 2.35318 11.3972 2.53303 11.8305C2.71956 12.2639 2.97269 12.6439 3.29244 12.9705C3.61219 13.2905 3.98523 13.5472 4.41157 13.7405C4.84456 13.9272 5.30754 14.0205 5.80049 14.0205H12.4953V16.0705Z" fill="#2F7CEF"/>
</g>
<g id="check (Stroke)">
<path id="Stroke" fill-rule="evenodd" clip-rule="evenodd" d="M71.9714 16.2867H68.3691L62.4697 11.5378L60.3038 13.3047V16.2867H57.8291V0.5H60.3038V10.5777L67.4676 4.6H70.9191L64.2946 10.0328L71.9714 16.2867ZM63.9577 10.0333L70.3227 4.81333H67.5449L60.0907 11.0333V0.713333H58.0423V16.0733H60.0907V13.2033L62.4688 11.2633L68.4442 16.0733H71.3719L63.9577 10.0333Z" fill="#2F7CEF"/>
<path id="Stroke_2" fill-rule="evenodd" clip-rule="evenodd" d="M49.5176 16.0729H56.2123V14.0229H49.5176C49.0246 14.0229 48.5616 13.9296 48.1286 13.7429C47.7023 13.5496 47.3293 13.2929 47.0095 12.9729C46.6898 12.6463 46.4366 12.2663 46.2501 11.8329C46.0702 11.3996 45.9803 10.9363 45.9803 10.4429C45.9803 9.9496 46.0702 9.48627 46.2501 9.05294C46.4366 8.61961 46.6898 8.24294 47.0095 7.92294C47.3293 7.59627 47.7023 7.33961 48.1286 7.15294C48.5616 6.95961 49.0246 6.85961 49.5176 6.85294H56.2123V4.81294H49.5176C48.7448 4.81294 48.0187 4.96294 47.3393 5.26294C46.6598 5.55628 46.0669 5.95961 45.5606 6.47294L45.4089 6.32308C45.9348 5.7899 46.5504 5.37129 47.254 5.06742C47.9614 4.75519 48.7167 4.59961 49.5176 4.59961H56.4255V7.06627H49.519C49.0544 7.07274 48.6206 7.16689 48.2155 7.34776L48.2141 7.34839C47.8123 7.5243 47.4621 7.76546 47.1618 8.07223L47.1603 8.0738C46.8607 8.37358 46.6227 8.72701 46.4464 9.13609C46.2782 9.54179 46.1935 9.97673 46.1935 10.4429C46.1935 10.9091 46.2782 11.3441 46.4464 11.7498C46.6227 12.1589 46.8609 12.516 47.161 12.8228C47.4613 13.1232 47.8121 13.3649 48.2148 13.5478C48.6194 13.7219 49.053 13.8096 49.5176 13.8096H56.4255V16.2863H49.5157C48.7159 16.2794 47.9615 16.1239 47.2548 15.8188L47.2532 15.8181C46.5505 15.5079 45.9355 15.0898 45.4099 14.5638L45.4079 14.5618C44.8896 14.0292 44.4789 13.4105 44.1758 12.7074C43.8707 11.9996 43.7188 11.244 43.7188 10.4429C43.7188 9.64186 43.8707 8.8863 44.1758 8.17844C44.4789 7.46869 44.8898 6.84954 45.4089 6.32308L45.5606 6.47294C45.061 6.97961 44.6647 7.57627 44.3716 8.26294C44.0785 8.94294 43.9319 9.6696 43.9319 10.4429C43.9319 11.2163 44.0785 11.9429 44.3716 12.6229C44.6647 13.3029 45.061 13.8996 45.5606 14.4129C46.0669 14.9196 46.6598 15.3229 47.3393 15.6229C48.0187 15.9163 48.7448 16.0663 49.5176 16.0729Z" fill="#2F7CEF"/>
<path id="Stroke_3" fill-rule="evenodd" clip-rule="evenodd" d="M42.7612 9.79295C42.9477 9.35961 43.0409 8.89295 43.0409 8.39295C43.0409 7.89295 42.9477 7.42628 42.7612 6.99295C42.5746 6.55962 42.3182 6.18295 41.9918 5.86295C41.672 5.53628 41.2923 5.27962 40.8527 5.09295C40.4197 4.90628 39.9567 4.81295 39.4637 4.81295H34.8174C34.0446 4.81962 33.3185 4.97295 32.6391 5.27295C31.9596 5.56628 31.3667 5.96962 30.8605 6.48295L30.7087 6.33309C31.2346 5.79991 31.8502 5.3813 32.5538 5.07742C33.2607 4.76546 34.0153 4.60653 34.8155 4.59962L34.8174 4.59961L39.4637 4.59962C39.9842 4.59962 40.4758 4.69829 40.9366 4.89684C41.3999 5.09367 41.8026 5.36531 42.1425 5.71205C42.4886 6.05176 42.7601 6.45123 42.9569 6.90855C43.1556 7.37011 43.2541 7.86568 43.2541 8.39295C43.2541 8.92021 43.1556 9.41578 42.9569 9.87734C42.76 10.3349 42.4884 10.7376 42.1425 11.0838C41.8025 11.4241 41.3997 11.6923 40.9365 11.8891C40.9363 11.8892 40.9361 11.8892 40.9359 11.8893L40.8527 11.6929L40.937 11.8889C40.9368 11.8889 40.9367 11.889 40.9365 11.8891C40.4758 12.0876 39.9842 12.1863 39.4637 12.1863H31.9802C31.9374 12.1167 31.8969 12.0456 31.8588 11.9729H31.6199C31.6553 12.0454 31.6928 12.1165 31.7325 12.1863C31.8571 12.4053 32.0027 12.6108 32.1694 12.8029C32.3893 13.0563 32.6357 13.2729 32.9089 13.4529C33.182 13.6329 33.4784 13.7729 33.7982 13.8729C34.1246 13.9729 34.4643 14.0229 34.8174 14.0229H41.5121V16.0729H34.8174C34.0446 16.0663 33.3185 15.9163 32.6391 15.6229C31.9596 15.3229 31.3667 14.9196 30.8605 14.4129C30.3608 13.8996 29.9645 13.3029 29.6714 12.6229C29.3783 11.9429 29.2317 11.2163 29.2317 10.4429C29.2317 9.66961 29.3783 8.94295 29.6714 8.26295C29.9645 7.58295 30.3608 6.98961 30.8605 6.48295L30.7087 6.33309C30.1898 6.85937 29.7788 7.47512 29.4756 8.17845C29.1705 8.88631 29.0186 9.64186 29.0186 10.4429C29.0186 11.244 29.1705 11.9996 29.4756 12.7074C29.7787 13.4105 30.1894 14.0292 30.7077 14.5618L30.7097 14.5638C31.2353 15.0898 31.8503 15.5079 32.553 15.8181L32.5546 15.8188C33.2613 16.1239 34.0157 16.2794 34.8155 16.2863H41.7253V13.8096H34.8174C34.485 13.8096 34.1665 13.7626 33.8612 13.6692C33.5602 13.575 33.282 13.4435 33.0261 13.2748C32.7696 13.1057 32.5378 12.9021 32.3304 12.6631C32.1999 12.5127 32.0832 12.3538 31.9802 12.1863M40.0533 9.81295C39.8668 9.89295 39.6702 9.93295 39.4637 9.93295H31.3201C31.3302 9.86108 31.3423 9.78997 31.3563 9.71961C31.4258 9.37228 31.5436 9.0434 31.7098 8.73295C31.9163 8.35295 32.1728 8.02628 32.4792 7.75295C32.7923 7.47295 33.1453 7.25295 33.5384 7.09295C33.938 6.93295 34.3644 6.85295 34.8174 6.85295H39.4637C39.6702 6.85295 39.8668 6.89628 40.0533 6.98295C40.2398 7.06295 40.403 7.17295 40.5429 7.31295C40.6828 7.45295 40.7927 7.61628 40.8726 7.80295C40.9526 7.98961 40.9925 8.18628 40.9925 8.39295C40.9925 8.60628 40.9526 8.80628 40.8726 8.99295C40.7927 9.17961 40.6828 9.34295 40.5429 9.48295C40.403 9.62295 40.2398 9.73295 40.0533 9.81295ZM33.6182 7.29076C33.9912 7.14154 34.3903 7.06628 34.8174 7.06628H39.4637C39.6394 7.06628 39.8052 7.1029 39.9635 7.17644L39.9664 7.17778L39.9693 7.17903C40.1316 7.24862 40.2719 7.34349 40.3922 7.4638C40.5124 7.58411 40.6072 7.72461 40.6767 7.88698C40.7451 8.04662 40.7794 8.21465 40.7794 8.39295C40.7794 8.57887 40.7447 8.75013 40.6767 8.90891C40.6072 9.07129 40.5124 9.21179 40.3922 9.3321C40.2719 9.45241 40.1316 9.54727 39.9693 9.61686C39.8098 9.68528 39.6419 9.71961 39.4637 9.71961H31.574C31.6403 9.40812 31.7481 9.11314 31.8975 8.83404C32.0928 8.47483 32.3341 8.16814 32.621 7.9122C32.9156 7.64878 33.2477 7.44163 33.6182 7.29076Z" fill="#2F7CEF"/>
<path id="Stroke_4" fill-rule="evenodd" clip-rule="evenodd" d="M27.8054 16.2867H25.3306V10.4433C25.3306 9.97766 25.2428 9.54319 25.0682 9.13772C24.8919 8.72812 24.6537 8.37427 24.3539 8.07418L24.3523 8.07262C24.0526 7.7664 23.6995 7.5253 23.2911 7.34925L23.2875 7.34768C22.8897 7.1673 22.4597 7.07312 21.9951 7.06666H16.5841V16.2867H14.1094V0.5H16.5841V4.6H21.9966C22.7974 4.6 23.5527 4.75558 24.2601 5.0678C24.9635 5.37159 25.579 5.79004 26.1047 6.323C26.6306 6.84944 27.0451 7.46872 27.3483 8.17883C27.6534 8.88669 27.8054 9.64224 27.8054 10.4433V16.2867ZM27.1525 8.26333C26.8594 7.57666 26.4597 6.97999 25.9535 6.47333C25.4472 5.95999 24.8543 5.55666 24.1749 5.26333C23.4954 4.96333 22.7693 4.81333 21.9966 4.81333H16.3709V0.713333H14.3225V16.0733H16.3709V6.85333H21.9966C22.4895 6.85999 22.9491 6.95999 23.3755 7.15333C23.8085 7.33999 24.1848 7.59666 24.5046 7.92333C24.8243 8.24333 25.0775 8.61999 25.264 9.05332C25.4505 9.48666 25.5438 9.94999 25.5438 10.4433V16.0733H27.5922V10.4433C27.5922 9.66999 27.4456 8.94333 27.1525 8.26333Z" fill="#2F7CEF"/>
<path id="Stroke_5" fill-rule="evenodd" clip-rule="evenodd" d="M5.79881 16.0729H12.4936V14.0229H5.79881C5.30586 14.0229 4.84289 13.9296 4.40989 13.7429C3.98356 13.5496 3.61052 13.2929 3.29077 12.9729C2.97101 12.6463 2.71788 12.2663 2.53136 11.8329C2.3515 11.3996 2.26157 10.9363 2.26157 10.4429C2.26157 9.9496 2.3515 9.48627 2.53136 9.05294C2.71788 8.61961 2.97101 8.24294 3.29077 7.92294C3.61052 7.59627 3.98356 7.33961 4.40989 7.15294C4.84289 6.95961 5.30586 6.85961 5.79881 6.85294H12.4936V4.81294H5.79881C5.02608 4.81294 4.29998 4.96294 3.62051 5.26294C2.94104 5.55628 2.34817 5.95961 1.8419 6.47294C1.34229 6.97961 0.945929 7.57627 0.652824 8.26294C0.359719 8.94294 0.213167 9.6696 0.213167 10.4429C0.213167 11.2163 0.359719 11.9429 0.652824 12.6229C0.945929 13.3029 1.34229 13.8996 1.8419 14.4129C2.34817 14.9196 2.94104 15.3229 3.62051 15.6229C4.29998 15.9163 5.02608 16.0663 5.79881 16.0729ZM0.456942 8.17879C0.151927 8.88655 0 9.64199 0 10.4429C0 11.244 0.151977 11.9996 0.457092 12.7074C0.760147 13.4105 1.17083 14.0292 1.68919 14.5618L1.69116 14.5638C2.21677 15.0898 2.83179 15.5079 3.53446 15.8181L3.53607 15.8188C4.24279 16.1239 4.9971 16.2794 5.79697 16.2863H12.7068V13.8096H5.79881C5.33422 13.8096 4.9007 13.7219 4.49608 13.5478C4.09337 13.3649 3.74263 13.1233 3.44226 12.8229C3.14215 12.516 2.90395 12.1589 2.72769 11.7498C2.55949 11.3441 2.47474 10.9092 2.47474 10.4429C2.47474 9.97671 2.55949 9.54176 2.72769 9.13605C2.90394 8.72699 3.14195 8.37357 3.4415 8.07379L3.44304 8.07223C3.74332 7.76546 4.09356 7.5243 4.49534 7.34839L4.49675 7.34776C4.90183 7.16689 5.33563 7.07274 5.80026 7.06627H12.7068V4.59961H5.79881C4.99798 4.59961 4.24272 4.75519 3.53528 5.0674C2.83165 5.37128 2.21604 5.78989 1.69018 6.32308C1.17097 6.84962 0.76001 7.46889 0.456942 8.17879Z" fill="#2F7CEF"/>
</g>
<g id="mate">
<path id="Vector_6" d="M88.7897 24.6073C88.7897 25.1073 88.6964 25.574 88.5099 26.0073C88.3234 26.4407 88.0669 26.8207 87.7405 27.1473C87.4208 27.4673 87.0411 27.7207 86.6014 27.9073C86.1684 28.094 85.7054 28.1873 85.2125 28.1873H77.3686C77.5152 28.4873 77.6983 28.764 77.9182 29.0173C78.138 29.2707 78.3845 29.4873 78.6576 29.6673C78.9307 29.8473 79.2272 29.9873 79.5469 30.0873C79.8733 30.1873 80.2131 30.2373 80.5661 30.2373H87.2609V32.2873H80.5661C79.7934 32.2807 79.0673 32.1307 78.3878 31.8373C77.7083 31.5373 77.1155 31.134 76.6092 30.6273C76.1096 30.114 75.7132 29.5173 75.4201 28.8373C75.127 28.1573 74.9805 27.4307 74.9805 26.6573C74.9805 25.884 75.127 25.1573 75.4201 24.4773C75.7132 23.7973 76.1096 23.204 76.6092 22.6973C77.1155 22.184 77.7083 21.7807 78.3878 21.4873C79.0673 21.1873 79.7934 21.034 80.5661 21.0273H85.2125C85.7054 21.0273 86.1684 21.1207 86.6014 21.3073C87.0411 21.494 87.4208 21.7507 87.7405 22.0773C88.0669 22.3973 88.3234 22.774 88.5099 23.2073C88.6964 23.6407 88.7897 24.1073 88.7897 24.6073ZM85.2125 26.1473C85.419 26.1473 85.6155 26.1073 85.802 26.0273C85.9885 25.9473 86.1517 25.8373 86.2916 25.6973C86.4315 25.5573 86.5414 25.394 86.6214 25.2073C86.7013 25.0207 86.7413 24.8207 86.7413 24.6073C86.7413 24.4007 86.7013 24.204 86.6214 24.0173C86.5414 23.8307 86.4315 23.6673 86.2916 23.5273C86.1517 23.3873 85.9885 23.2773 85.802 23.1973C85.6155 23.1107 85.419 23.0673 85.2125 23.0673H80.5661C80.1131 23.0673 79.6868 23.1473 79.2871 23.3073C78.8941 23.4673 78.541 23.6873 78.2279 23.9673C77.9215 24.2407 77.665 24.5673 77.4585 24.9473C77.2587 25.3207 77.1288 25.7207 77.0688 26.1473H85.2125Z" fill="#2F7CEF"/>
<path id="Vector_7" d="M67.4656 32.2877H65.4172V23.0677H62.3496V21.0277H65.4172V16.9277H67.4656V21.0277H74.63V23.0677H67.4656V32.2877Z" fill="#2F7CEF"/>
<path id="Vector_8" d="M61.0487 32.2873H50.8167C50.3171 32.2873 49.8508 32.194 49.4178 32.0073C48.9848 31.8207 48.6051 31.5673 48.2787 31.2473C47.9523 30.9207 47.6958 30.5407 47.5093 30.1073C47.3228 29.6673 47.2295 29.2007 47.2295 28.7073C47.2295 28.2073 47.3228 27.7407 47.5093 27.3073C47.6958 26.874 47.9523 26.494 48.2787 26.1673C48.6051 25.8407 48.9848 25.584 49.4178 25.3973C49.8508 25.2107 50.3171 25.1173 50.8167 25.1173H57.9711V27.1673H50.8167C50.6035 27.1673 50.4037 27.2107 50.2172 27.2973C50.0306 27.3773 49.8674 27.4873 49.7275 27.6273C49.5877 27.7673 49.4777 27.9307 49.3978 28.1173C49.3179 28.304 49.2779 28.5007 49.2779 28.7073C49.2779 28.9207 49.3179 29.1207 49.3978 29.3073C49.4777 29.4873 49.5877 29.6473 49.7275 29.7873C49.8674 29.9273 50.0306 30.0373 50.2172 30.1173C50.4037 30.1973 50.6035 30.2373 50.8167 30.2373H59.0003V24.6073C59.0003 24.4007 58.957 24.204 58.8704 24.0173C58.7905 23.8307 58.6806 23.6673 58.5407 23.5273C58.4008 23.3873 58.2376 23.2773 58.051 23.1973C57.8645 23.1107 57.668 23.0673 57.4615 23.0673H49.2779V21.0273H57.4615C57.9611 21.0273 58.4274 21.1207 58.8604 21.3073C59.2934 21.494 59.6731 21.7507 59.9995 22.0773C60.3259 22.3973 60.5824 22.774 60.7689 23.2073C60.9554 23.6407 61.0487 24.1073 61.0487 24.6073V32.2873Z" fill="#2F7CEF"/>
<path id="Vector_9" d="M31.5416 32.2873H29.4932V21.0273H40.2847C41.0575 21.0273 41.7836 21.1773 42.463 21.4773C43.1425 21.7707 43.7321 22.174 44.2317 22.6873C44.7379 23.194 45.1376 23.7907 45.4307 24.4773C45.7238 25.1573 45.8704 25.884 45.8704 26.6573V32.2873H43.822V26.6573C43.822 26.164 43.7287 25.7007 43.5422 25.2673C43.3557 24.834 43.1025 24.4573 42.7828 24.1373C42.463 23.8107 42.0867 23.554 41.6537 23.3673C41.2273 23.174 40.771 23.074 40.2847 23.0673H38.706V32.2873H36.6576V23.0673H31.5416V32.2873Z" fill="#2F7CEF"/>
</g>
<g id="mate (Stroke)">
<path id="Stroke_6" fill-rule="evenodd" clip-rule="evenodd" d="M88.5073 26.0058C88.6938 25.5725 88.787 25.1058 88.787 24.6058C88.787 24.1058 88.6938 23.6392 88.5073 23.2058C88.3207 22.7725 88.0643 22.3958 87.7379 22.0758C87.4181 21.7492 87.0384 21.4925 86.5987 21.3058C86.1657 21.1192 85.7028 21.0258 85.2098 21.0258H80.5635C79.7907 21.0325 79.0646 21.1858 78.3852 21.4858C77.7057 21.7792 77.1128 22.1825 76.6065 22.6958L76.4548 22.546C76.9807 22.0128 77.5963 21.5942 78.2999 21.2903C79.0068 20.9783 79.7614 20.8194 80.5616 20.8125L80.5635 20.8125L85.2098 20.8125C85.7302 20.8125 86.2218 20.9111 86.6824 21.1096C87.1459 21.3065 87.5487 21.5782 87.8886 21.925C88.2347 22.2647 88.5062 22.6642 88.703 23.1214C88.9017 23.583 89.0002 24.0786 89.0002 24.6058C89.0002 25.1331 88.9017 25.6287 88.703 26.0902C88.5061 26.5478 88.2345 26.9505 87.8886 27.2967C87.5485 27.637 87.1456 27.9053 86.6824 28.1021C86.2217 28.3005 85.7302 28.3992 85.2098 28.3992H77.7263C77.8293 28.5667 77.946 28.7256 78.0765 28.876C78.2839 29.115 78.5157 29.3186 78.7722 29.4877C79.0281 29.6564 79.3063 29.7878 79.6073 29.882C79.9126 29.9755 80.2311 30.0225 80.5635 30.0225H87.4714V32.4992H80.5616C79.7618 32.4923 79.0074 32.3368 78.3007 32.0317L78.2991 32.031C77.5964 31.7208 76.9814 31.3027 76.4558 30.7767L76.4538 30.7747C75.9355 30.2421 75.5248 29.6234 75.2217 28.9203C74.9166 28.2125 74.7646 27.4569 74.7646 26.6558C74.7646 25.8548 74.9166 25.0992 75.2217 24.3913C75.5249 23.688 75.9359 23.0723 76.4548 22.546L76.6065 22.6958C76.1069 23.2025 75.7106 23.7958 75.4175 24.4758C75.1244 25.1558 74.9778 25.8825 74.9778 26.6558C74.9778 27.4292 75.1244 28.1558 75.4175 28.8358C75.7106 29.5158 76.1069 30.1125 76.6065 30.6258C77.1128 31.1325 77.7057 31.5358 78.3852 31.8358C79.0646 32.1292 79.7907 32.2792 80.5635 32.2858H87.2582V30.2358H80.5635C80.2104 30.2358 79.8707 30.1858 79.5443 30.0858C79.2245 29.9858 78.9281 29.8458 78.6549 29.6658C78.3818 29.4858 78.1354 29.2692 77.9155 29.0158C77.7488 28.8237 77.6031 28.6181 77.4786 28.3992C77.4389 28.3294 77.4014 28.2583 77.366 28.1858H85.2098C85.7028 28.1858 86.1657 28.0925 86.5987 27.9058C87.0384 27.7192 87.4181 27.4658 87.7379 27.1458C88.0643 26.8192 88.3207 26.4392 88.5073 26.0058ZM85.7994 26.0258C85.6128 26.1058 85.4163 26.1458 85.2098 26.1458H77.0662C77.0763 26.074 77.0884 26.0029 77.1024 25.9325C77.1719 25.5852 77.2897 25.2563 77.4559 24.9458C77.6624 24.5658 77.9189 24.2392 78.2253 23.9658C78.5384 23.6858 78.8914 23.4658 79.2845 23.3058C79.6841 23.1458 80.1105 23.0658 80.5635 23.0658H85.2098C85.4163 23.0658 85.6128 23.1092 85.7994 23.1958C85.9859 23.2758 86.1491 23.3858 86.289 23.5258C86.4289 23.6658 86.5388 23.8292 86.6187 24.0158C86.6987 24.2025 86.7386 24.3992 86.7386 24.6058C86.7386 24.8192 86.6987 25.0192 86.6187 25.2058C86.5388 25.3925 86.4289 25.5558 86.289 25.6958C86.1491 25.8358 85.9859 25.9458 85.7994 26.0258ZM79.3643 23.5036C79.7373 23.3544 80.1364 23.2792 80.5635 23.2792H85.2098C85.3855 23.2792 85.5513 23.3158 85.7096 23.3893L85.7125 23.3907L85.7154 23.3919C85.8777 23.4615 86.018 23.5564 86.1383 23.6767C86.2585 23.797 86.3533 23.9375 86.4228 24.0999C86.4912 24.2595 86.5255 24.4275 86.5255 24.6058C86.5255 24.7918 86.4908 24.963 86.4228 25.1218C86.3533 25.2842 86.2585 25.4247 86.1383 25.545C86.018 25.6653 85.8777 25.7602 85.7154 25.8298C85.5559 25.8982 85.388 25.9325 85.2098 25.9325H77.3201C77.3864 25.621 77.4942 25.326 77.6436 25.0469C77.8389 24.6877 78.0802 24.381 78.3671 24.1251C78.6617 23.8617 78.9938 23.6545 79.3643 23.5036Z" fill="#2F7CEF"/>
<path id="Stroke_7" fill-rule="evenodd" clip-rule="evenodd" d="M67.6732 32.4995H65.1985V23.2796H62.1309V20.8129H65.1985V16.7129H67.6732V20.8129H74.8376V23.2796H67.6732V32.4995ZM67.46 21.0262V16.9262H65.4116V21.0262H62.344V23.0662H65.4116V32.2862H67.46V23.0662H74.6244V21.0262H67.46Z" fill="#2F7CEF"/>
<path id="Stroke_8" fill-rule="evenodd" clip-rule="evenodd" d="M50.8131 32.2858H61.0451V24.6058C61.0451 24.1058 60.9518 23.6392 60.7653 23.2058C60.5788 22.7725 60.3223 22.3958 59.9959 22.0758C59.6695 21.7492 59.2898 21.4925 58.8568 21.3058C58.4238 21.1192 57.9575 21.0258 57.4579 21.0258H49.2743V23.0658H57.4579C57.6644 23.0658 57.8609 23.1092 58.0474 23.1958C58.2339 23.2758 58.3971 23.3858 58.537 23.5258C58.6769 23.6658 58.7868 23.8292 58.8668 24.0158C58.9534 24.2025 58.9967 24.3992 58.9967 24.6058V30.2358H50.8131C50.5999 30.2358 50.4001 30.1958 50.2135 30.1158C50.027 30.0358 49.8638 29.9258 49.7239 29.7858C49.584 29.6458 49.4741 29.4858 49.3942 29.3058C49.3142 29.1192 49.2743 28.9192 49.2743 28.7058C49.2743 28.4992 49.3142 28.3025 49.3942 28.1158C49.4741 27.9292 49.584 27.7658 49.7239 27.6258C49.8638 27.4858 50.027 27.3758 50.2135 27.2958C50.4001 27.2092 50.5999 27.1658 50.8131 27.1658H57.9675V25.1158H50.8131C50.3135 25.1158 49.8472 25.2092 49.4142 25.3958C48.9812 25.5825 48.6015 25.8392 48.275 26.1658C47.9486 26.4925 47.6922 26.8725 47.5056 27.3058C47.3191 27.7392 47.2259 28.2058 47.2259 28.7058C47.2259 29.1992 47.3191 29.6658 47.5056 30.1058C47.6922 30.5392 47.9486 30.9192 48.275 31.2458C48.6015 31.5658 48.9812 31.8192 49.4142 32.0058C49.8472 32.1925 50.3135 32.2858 50.8131 32.2858ZM49.5895 29.2205C49.5219 29.0621 49.4874 28.8912 49.4874 28.7058C49.4874 28.5275 49.5217 28.3595 49.5901 28.1999C49.6596 28.0375 49.7544 27.897 49.8746 27.7767C49.9949 27.6564 50.1353 27.5615 50.2975 27.4919L50.3004 27.4907L50.3033 27.4893C50.4607 27.4162 50.6297 27.3792 50.8131 27.3792H58.1806V24.9025H50.8131C50.2862 24.9025 49.791 25.0011 49.3298 25.1999C48.8726 25.397 48.4702 25.6688 48.1243 26.015C47.7784 26.3612 47.5068 26.7638 47.3099 27.2214C47.1112 27.683 47.0127 28.1786 47.0127 28.7058C47.0127 29.2268 47.1114 29.7219 47.3094 30.1891L47.3099 30.1902C47.5068 30.6478 47.7784 31.0505 48.1243 31.3967L48.1259 31.3982C48.4716 31.7372 48.8735 32.005 49.3298 32.2017C49.791 32.4006 50.2862 32.4992 50.8131 32.4992H61.2582V24.6058C61.2582 24.0786 61.1597 23.583 60.9611 23.1214C60.7641 22.6638 60.4923 22.2641 60.1458 21.9242C59.8001 21.5784 59.398 21.3069 58.9411 21.1099C58.4799 20.9111 57.9847 20.8125 57.4579 20.8125H49.0611V23.2792H57.4579C57.6335 23.2792 57.7994 23.3158 57.9577 23.3893L57.9605 23.3907L57.9634 23.3919C58.1257 23.4615 58.2661 23.5564 58.3863 23.6767C58.5065 23.797 58.6013 23.9375 58.6708 24.0999L58.6721 24.1028L58.6734 24.1057C58.7469 24.2641 58.7835 24.4301 58.7835 24.6058V30.0225H50.8131C50.6273 30.0225 50.4562 29.9878 50.2975 29.9197C50.1353 29.8501 49.9949 29.7553 49.8746 29.635C49.7535 29.5137 49.6587 29.3759 49.5895 29.2205Z" fill="#2F7CEF"/>
<path id="Stroke_9" fill-rule="evenodd" clip-rule="evenodd" d="M31.5389 32.2858V23.0658H36.6549V32.2858H38.7033V23.0658H40.2821C40.7684 23.0725 41.2247 23.1725 41.651 23.3658C42.084 23.5525 42.4604 23.8092 42.7801 24.1358C43.0999 24.4558 43.353 24.8325 43.5395 25.2658C43.7261 25.6992 43.8193 26.1625 43.8193 26.6558V32.2858H45.8677V26.6558C45.8677 25.8825 45.7212 25.1558 45.4281 24.4758C45.135 23.7892 44.7353 23.1925 44.229 22.6858C43.7294 22.1725 43.1399 21.7692 42.4604 21.4758C41.7809 21.1758 41.0548 21.0258 40.2821 21.0258H29.4905V32.2858H31.5389ZM42.5457 21.2803C41.8382 20.9681 41.0829 20.8125 40.2821 20.8125H29.2773V32.4992H31.7521V23.2792H36.4418V32.4992H38.9165V23.2792H40.2806C40.7382 23.2856 41.1649 23.3796 41.563 23.5601L41.5667 23.5618C41.975 23.7378 42.3281 23.9789 42.6279 24.2851L42.6294 24.2867C42.9293 24.5868 43.1675 24.9406 43.3438 25.3502C43.5183 25.7557 43.6062 26.1902 43.6062 26.6558V32.4992H46.0809V26.6558C46.0809 25.8549 45.929 25.0995 45.624 24.3917C45.3208 23.6817 44.9065 23.0624 44.3807 22.5359C43.8614 22.0026 43.2491 21.5841 42.5457 21.2803Z" fill="#2F7CEF"/>
</g>
<path id="Vector 400 (Stroke)" fill-rule="evenodd" clip-rule="evenodd" d="M88.9332 6.11464L79.7466 16.4567L74.9336 10.3022L76.6123 8.98736L79.8508 13.1285L87.34 4.69727L88.9332 6.11464Z" fill="#5BFB67"/>
</g>
</svg>