<svg width="112" height="40" viewBox="0 0 112 40" fill="none" xmlns="http://www.w3.org/2000/svg">
<g id="Group 2305">
<g id="check">
<path id="Vector" d="M89.8174 19.4652H86.133L78.6135 13.4528L75.6207 15.8777V19.4652H73.043V0.265625H75.6207V13.1653L85.0013 5.3905H88.497L80.4871 11.9153L89.8174 19.4652Z" fill="white"/>
<path id="Vector_2" d="M70.7412 19.4653H62.3163C61.3438 19.4569 60.4301 19.2695 59.575 18.9028C58.7199 18.5278 57.9739 18.0236 57.3368 17.3903C56.708 16.7487 56.2092 16.0029 55.8404 15.1529C55.4715 14.3029 55.2871 13.3946 55.2871 12.428C55.2871 11.4613 55.4715 10.553 55.8404 9.70302C56.2092 8.84471 56.708 8.09889 57.3368 7.46557C57.9739 6.82392 58.7199 6.31977 59.575 5.95311C60.4301 5.57812 61.3438 5.39062 62.3163 5.39062H70.7412V7.94056H62.3163C61.6959 7.9489 61.1133 8.07389 60.5684 8.31555C60.0319 8.54888 59.5624 8.86971 59.1601 9.27803C58.7577 9.67802 58.4391 10.1488 58.2044 10.6905C57.9781 11.2321 57.8649 11.8113 57.8649 12.428C57.8649 13.0446 57.9781 13.6238 58.2044 14.1654C58.4391 14.7071 58.7577 15.1821 59.1601 15.5904C59.5624 15.9904 60.0319 16.3112 60.5684 16.5529C61.1133 16.7862 61.6959 16.9028 62.3163 16.9028H70.7412V19.4653Z" fill="white"/>
<path id="Vector_3" d="M54.1651 9.86552C54.1651 10.4905 54.0477 11.0738 53.813 11.6155C53.5783 12.1571 53.2555 12.6321 52.8448 13.0404C52.4424 13.4404 51.9645 13.7571 51.4113 13.9904C50.8664 14.2237 50.2837 14.3404 49.6634 14.3404H39.7924C39.9768 14.7154 40.2074 15.0612 40.484 15.3779C40.7607 15.6945 41.0708 15.9654 41.4145 16.1904C41.7582 16.4154 42.1313 16.5904 42.5337 16.7153C42.9444 16.8403 43.372 16.9028 43.8163 16.9028H52.2412V19.4653H43.8163C42.8438 19.4569 41.9301 19.2695 41.075 18.9028C40.2199 18.5278 39.4739 18.0236 38.8368 17.3903C38.208 16.7487 37.7092 16.0029 37.3404 15.1529C36.9715 14.3029 36.7871 13.3946 36.7871 12.428C36.7871 11.4613 36.9715 10.553 37.3404 9.70302C37.7092 8.85304 38.208 8.11139 38.8368 7.47807C39.4739 6.83642 40.2199 6.33227 41.075 5.96561C41.9301 5.59062 42.8438 5.39896 43.8163 5.39062H49.6634C50.2837 5.39062 50.8664 5.50729 51.4113 5.74062C51.9645 5.97394 52.4424 6.29477 52.8448 6.70309C53.2555 7.10308 53.5783 7.5739 53.813 8.11556C54.0477 8.65721 54.1651 9.24053 54.1651 9.86552ZM49.6634 11.7905C49.9233 11.7905 50.1706 11.7405 50.4053 11.6405C50.64 11.5405 50.8454 11.403 51.0215 11.228C51.1975 11.053 51.3358 10.8488 51.4364 10.6155C51.537 10.3822 51.5873 10.1322 51.5873 9.86552C51.5873 9.60719 51.537 9.36136 51.4364 9.12803C51.3358 8.89471 51.1975 8.69054 51.0215 8.51555C50.8454 8.34055 50.64 8.20306 50.4053 8.10306C50.1706 7.99473 49.9233 7.94056 49.6634 7.94056H43.8163C43.2462 7.94056 42.7097 8.04056 42.2067 8.24056C41.7121 8.44055 41.2678 8.71554 40.8738 9.06553C40.4882 9.40719 40.1655 9.81552 39.9056 10.2905C39.6541 10.7572 39.4906 11.2571 39.4152 11.7905H49.6634Z" fill="white"/>
<path id="Vector_4" d="M34.7243 19.4652H32.1466V12.4278C32.1466 11.8112 32.0292 11.232 31.7945 10.6904C31.5597 10.1487 31.2412 9.67789 30.8388 9.2779C30.4364 8.86958 29.9628 8.54875 29.4179 8.31543C28.8814 8.07377 28.303 7.94877 27.6826 7.94044H20.6032V19.4652H18.0254V0.265625H20.6032V5.3905H27.6826C28.655 5.3905 29.5688 5.57799 30.4239 5.95299C31.2789 6.31964 32.025 6.8238 32.6621 7.46545C33.2992 8.09877 33.8022 8.84458 34.1711 9.70289C34.5399 10.5529 34.7243 11.4612 34.7243 12.4278V19.4652Z" fill="white"/>
<path id="Vector_5" d="M15.7236 19.4653H7.29868C6.32625 19.4569 5.4125 19.2695 4.55744 18.9028C3.70237 18.5278 2.95628 18.0236 2.31918 17.3903C1.69045 16.7487 1.19166 16.0029 0.82281 15.1529C0.453957 14.3029 0.269531 13.3946 0.269531 12.428C0.269531 11.4613 0.453957 10.553 0.82281 9.70302C1.19166 8.84471 1.69045 8.09889 2.31918 7.46557C2.95628 6.82392 3.70237 6.31977 4.55744 5.95311C5.4125 5.57812 6.32625 5.39062 7.29868 5.39062H15.7236V7.94056H7.29868C6.67834 7.9489 6.09572 8.07389 5.55082 8.31555C5.01431 8.54888 4.54486 8.86971 4.14248 9.27803C3.74009 9.67802 3.42154 10.1488 3.18682 10.6905C2.96048 11.2321 2.84731 11.8113 2.84731 12.428C2.84731 13.0446 2.96048 13.6238 3.18682 14.1654C3.42154 14.7071 3.74009 15.1821 4.14248 15.5904C4.54486 15.9904 5.01431 16.3112 5.55082 16.5529C6.09572 16.7862 6.67834 16.9028 7.29868 16.9028H15.7236V19.4653Z" fill="white"/>
</g>
<g id="check (Stroke)">
<path id="Stroke" fill-rule="evenodd" clip-rule="evenodd" d="M90.5706 19.7328H86.0373L78.6133 13.797L75.8877 16.0054V19.7328H72.7734V0H75.8877V12.5968L84.9029 5.12487H89.2463L80.9099 11.9157L90.5706 19.7328ZM80.4858 11.9164L88.4958 5.39153H85L75.6195 13.1663V0.26666H73.0417V19.4662H75.6195V15.8788L78.6122 13.4538L86.1318 19.4662H89.8161L80.4858 11.9164Z" fill="white"/>
<path id="Stroke_2" fill-rule="evenodd" clip-rule="evenodd" d="M62.315 19.4663H70.7399V16.9039H62.315C61.6946 16.9039 61.112 16.7872 60.5671 16.5539C60.0306 16.3122 59.5612 15.9914 59.1588 15.5914C58.7564 15.1831 58.4378 14.7081 58.2031 14.1664C57.9768 13.6248 57.8636 13.0456 57.8636 12.429C57.8636 11.8123 57.9768 11.2332 58.2031 10.6915C58.4378 10.1499 58.7564 9.67905 59.1588 9.27906C59.5612 8.87074 60.0306 8.54992 60.5671 8.31659C61.112 8.07493 61.6946 7.94993 62.315 7.9416H70.7399V5.39166H62.315C61.3426 5.39166 60.4288 5.57916 59.5737 5.95415C58.7187 6.3208 57.9726 6.82496 57.3355 7.46661L57.1446 7.27929C57.8063 6.61283 58.581 6.08958 59.4664 5.70975C60.3567 5.31947 61.3072 5.125 62.315 5.125H71.0082V8.20826H62.3168C61.7321 8.21634 61.1862 8.33403 60.6764 8.56011L60.6747 8.5609C60.169 8.78078 59.7283 9.08221 59.3504 9.46567L59.3485 9.46763C58.9715 9.84235 58.672 10.2841 58.4502 10.7955C58.2385 11.3026 58.1319 11.8462 58.1319 12.429C58.1319 13.0117 58.2385 13.5554 58.4502 14.0625C58.672 14.5739 58.9717 15.0203 59.3494 15.4038C59.7274 15.7793 60.1688 16.0814 60.6756 16.31C61.1848 16.5276 61.7303 16.6372 62.315 16.6372H71.0082V19.733H62.3127C61.3061 19.7243 60.3568 19.53 59.4675 19.1487L59.4655 19.1478C58.5812 18.76 57.8072 18.2374 57.1458 17.5799L57.1433 17.5774C56.491 16.9117 55.9742 16.1384 55.5928 15.2595C55.2088 14.3747 55.0176 13.4303 55.0176 12.429C55.0176 11.4277 55.2088 10.4832 55.5928 9.59843C55.9742 8.71126 56.4913 7.93734 57.1446 7.27929L57.3355 7.46661C56.7068 8.09993 56.208 8.84574 55.8391 9.70405C55.4703 10.554 55.2858 11.4623 55.2858 12.429C55.2858 13.3956 55.4703 14.3039 55.8391 15.1539C56.208 16.0039 56.7068 16.7497 57.3355 17.3914C57.9726 18.0247 58.7187 18.5288 59.5737 18.9038C60.4288 19.2705 61.3426 19.458 62.315 19.4663Z" fill="white"/>
<path id="Stroke_3" fill-rule="evenodd" clip-rule="evenodd" d="M53.8117 11.6165C54.0464 11.0749 54.1638 10.4915 54.1638 9.86656C54.1638 9.24158 54.0464 8.65826 53.8117 8.1166C53.577 7.57495 53.2542 7.10413 52.8435 6.70414C52.4411 6.29581 51.9633 5.97499 51.41 5.74166C50.8651 5.50833 50.2825 5.39167 49.6621 5.39167H43.815C42.8426 5.4 41.9288 5.59166 41.0737 5.96666C40.2187 6.33331 39.4726 6.83747 38.8355 7.47912L38.6446 7.2918C39.3063 6.62534 40.081 6.10209 40.9664 5.72225C41.856 5.3323 42.8056 5.13365 43.8127 5.12502L43.815 5.125L49.6621 5.12501C50.3171 5.12501 50.9358 5.24835 51.5156 5.49653C52.0987 5.74256 52.6055 6.0821 53.0331 6.51552C53.4687 6.94015 53.8104 7.43947 54.0581 8.01111C54.3081 8.58804 54.4321 9.2075 54.4321 9.86656C54.4321 10.5256 54.3081 11.1451 54.0581 11.722C53.8102 12.294 53.4685 12.7973 53.0332 13.23C52.6053 13.6554 52.0984 13.9907 51.5155 14.2366C51.5153 14.2367 51.515 14.2368 51.5148 14.2369L51.41 13.9915L51.5161 14.2364C51.5159 14.2365 51.5157 14.2365 51.5155 14.2366C50.9357 14.4848 50.317 14.6081 49.6621 14.6081H40.2446C40.1907 14.5211 40.1398 14.4322 40.0919 14.3415H39.7911C39.8357 14.432 39.8829 14.5209 39.9329 14.6081C40.0896 14.8818 40.2729 15.1388 40.4827 15.3789C40.7594 15.6956 41.0695 15.9664 41.4133 16.1914C41.757 16.4164 42.13 16.5914 42.5324 16.7164C42.9432 16.8414 43.3707 16.9039 43.815 16.9039H52.2399V19.4663H43.815C42.8426 19.458 41.9288 19.2705 41.0737 18.9038C40.2187 18.5288 39.4726 18.0247 38.8355 17.3914C38.2068 16.7497 37.708 16.0039 37.3391 15.1539C36.9703 14.304 36.7858 13.3956 36.7858 12.429C36.7858 11.4624 36.9703 10.554 37.3391 9.70406C37.708 8.85409 38.2068 8.11244 38.8355 7.47912L38.6446 7.2918C37.9915 7.94964 37.4743 8.7193 37.0928 9.59844C36.7088 10.4832 36.5176 11.4277 36.5176 12.429C36.5176 13.4303 36.7088 14.3747 37.0928 15.2596C37.4742 16.1384 37.991 16.9117 38.6433 17.5775L38.6458 17.5799C39.3072 18.2374 40.0812 18.76 40.9655 19.1478L40.9675 19.1487C41.8568 19.5301 42.8061 19.7244 43.8127 19.733H52.5082V16.6372H43.815C43.3967 16.6372 42.9959 16.5785 42.6117 16.4617C42.2329 16.3439 41.8829 16.1796 41.5608 15.9687C41.238 15.7574 40.9463 15.5028 40.6853 15.2041C40.5211 15.0162 40.3743 14.8176 40.2446 14.6081M50.404 11.6415C50.1693 11.7415 49.922 11.7915 49.6621 11.7915H39.4139C39.4266 11.7017 39.4418 11.6128 39.4595 11.5249C39.5469 11.0907 39.6952 10.6796 39.9043 10.2916C40.1642 9.81656 40.4869 9.40824 40.8725 9.06658C41.2666 8.71659 41.7108 8.4416 42.2054 8.2416C42.7084 8.0416 43.2449 7.94161 43.815 7.94161H49.6621C49.922 7.94161 50.1693 7.99577 50.404 8.1041C50.6387 8.2041 50.8441 8.3416 51.0202 8.51659C51.1962 8.69159 51.3345 8.89575 51.4351 9.12908C51.5357 9.36241 51.586 9.60823 51.586 9.86656C51.586 10.1332 51.5357 10.3832 51.4351 10.6165C51.3345 10.8499 51.1962 11.054 51.0202 11.229C50.8441 11.404 50.6387 11.5415 50.404 11.6415ZM42.3059 8.48886C42.7753 8.30233 43.2776 8.20827 43.815 8.20827H49.6621C49.8831 8.20827 50.0919 8.25404 50.2911 8.34597L50.2947 8.34764L50.2984 8.3492C50.5025 8.43619 50.6792 8.55477 50.8305 8.70515C50.9818 8.85554 51.1011 9.03116 51.1886 9.23412C51.2746 9.43366 51.3178 9.64369 51.3178 9.86656C51.3178 10.099 51.2741 10.313 51.1886 10.5115C51.1011 10.7145 50.9818 10.8901 50.8305 11.0405C50.6792 11.1909 50.5025 11.3094 50.2984 11.3964C50.0976 11.4819 49.8863 11.5249 49.6621 11.5249H39.7334C39.8169 11.1355 39.9526 10.7668 40.1405 10.4179C40.3863 9.96891 40.69 9.58555 41.051 9.26565C41.4217 8.93638 41.8397 8.67744 42.3059 8.48886Z" fill="white"/>
<path id="Stroke_4" fill-rule="evenodd" clip-rule="evenodd" d="M34.9913 19.7328H31.877V12.4289C31.877 11.8468 31.7665 11.3037 31.5468 10.7969C31.325 10.2849 31.0252 9.8426 30.6479 9.4675L30.6459 9.46555C30.2687 9.08279 29.8244 8.78142 29.3105 8.56137L29.3059 8.55939C28.8053 8.33393 28.2642 8.21621 27.6795 8.20813H20.8701V19.7328H17.7559V0H20.8701V5.12487H27.6813C28.6891 5.12487 29.6396 5.31935 30.5299 5.70962C31.4151 6.08934 32.1896 6.6124 32.8512 7.27858C33.513 7.93661 34.0345 8.7107 34.4161 9.59831C34.8001 10.4831 34.9913 11.4275 34.9913 12.4289V19.7328ZM34.1698 9.70393C33.8009 8.84562 33.2979 8.0998 32.6608 7.46648C32.0237 6.82483 31.2776 6.32068 30.4226 5.95402C29.5675 5.57903 28.6538 5.39153 27.6813 5.39153H20.6019V0.26666H18.0241V19.4662H20.6019V7.94147H27.6813C28.3017 7.9498 28.8801 8.0748 29.4166 8.31646C29.9615 8.54979 30.4352 8.87062 30.8375 9.27894C31.2399 9.67893 31.5585 10.1498 31.7932 10.6914C32.0279 11.2331 32.1453 11.8122 32.1453 12.4289V19.4662H34.7231V12.4289C34.7231 11.4622 34.5386 10.5539 34.1698 9.70393Z" fill="white"/>
<path id="Stroke_5" fill-rule="evenodd" clip-rule="evenodd" d="M7.2974 19.4663H15.7223V16.9039H7.2974C6.67706 16.9039 6.09444 16.7872 5.54955 16.5539C5.01304 16.3122 4.54359 15.9914 4.1412 15.5914C3.73882 15.1831 3.42027 14.7081 3.18554 14.1664C2.9592 13.6248 2.84603 13.0456 2.84603 12.429C2.84603 11.8123 2.9592 11.2332 3.18554 10.6915C3.42027 10.1499 3.73882 9.67905 4.1412 9.27906C4.54359 8.87074 5.01304 8.54992 5.54955 8.31659C6.09444 8.07493 6.67706 7.94993 7.2974 7.9416H15.7223V5.39166H7.2974C6.32498 5.39166 5.41123 5.57916 4.55616 5.95415C3.7011 6.3208 2.95501 6.82496 2.3179 7.46661C1.68918 8.09993 1.19039 8.84574 0.821534 9.70405C0.452682 10.554 0.268256 11.4623 0.268256 12.429C0.268256 13.3956 0.452682 14.3039 0.821534 15.1539C1.19039 16.0039 1.68918 16.7497 2.3179 17.3914C2.95501 18.0247 3.7011 18.5288 4.55616 18.9038C5.41123 19.2705 6.32498 19.458 7.2974 19.4663ZM0.57503 9.59887C0.19119 10.4835 0 11.4278 0 12.429C0 13.4303 0.191253 14.3747 0.575219 15.2595C0.956593 16.1384 1.47341 16.9117 2.12574 17.5774L2.12821 17.5799C2.78965 18.2374 3.56362 18.76 4.44788 19.1478L4.44991 19.1487C5.33926 19.53 6.28852 19.7243 7.29509 19.733H15.9906V16.6372H7.2974C6.71275 16.6372 6.16719 16.5276 5.65801 16.31C5.15122 16.0814 4.70984 15.7793 4.33185 15.4038C3.95418 15.0203 3.65443 14.5739 3.43261 14.0626C3.22095 13.5554 3.11429 13.0118 3.11429 12.429C3.11429 11.8462 3.22095 11.3025 3.43261 10.7954C3.65441 10.2841 3.95393 9.84234 4.33089 9.46762L4.33284 9.46567C4.71071 9.08221 5.15146 8.78078 5.65707 8.5609L5.65885 8.56011C6.16862 8.33403 6.71453 8.21634 7.29924 8.20826H15.9906V5.125H7.2974C6.28962 5.125 5.33918 5.31947 4.44891 5.70972C3.56344 6.08956 2.78873 6.61282 2.12698 7.27929C1.47359 7.93745 0.956421 8.71152 0.57503 9.59887Z" fill="white"/>
</g>
<g id="mate">
<path id="Vector_6" d="M111.735 30.135C111.735 30.76 111.618 31.3433 111.383 31.885C111.149 32.4267 110.826 32.9016 110.415 33.31C110.013 33.71 109.535 34.0266 108.982 34.2599C108.437 34.4933 107.854 34.6099 107.234 34.6099H97.3627C97.5472 34.9849 97.7777 35.3308 98.0543 35.6474C98.331 35.9641 98.6411 36.2349 98.9848 36.4599C99.3285 36.6849 99.7016 36.8599 100.104 36.9849C100.515 37.1099 100.942 37.1724 101.387 37.1724H109.811V39.7348H101.387C100.414 39.7265 99.5004 39.539 98.6453 39.1723C97.7903 38.7973 97.0442 38.2932 96.4071 37.6599C95.7783 37.0182 95.2796 36.2724 94.9107 35.4224C94.5418 34.5724 94.3574 33.6641 94.3574 32.6975C94.3574 31.7308 94.5418 30.8225 94.9107 29.9726C95.2796 29.1226 95.7783 28.3809 96.4071 27.7476C97.0442 27.106 97.7903 26.6018 98.6453 26.2351C99.5004 25.8602 100.414 25.6685 101.387 25.6602H107.234C107.854 25.6602 108.437 25.7768 108.982 26.0101C109.535 26.2435 110.013 26.5643 110.415 26.9726C110.826 27.3726 111.149 27.8434 111.383 28.3851C111.618 28.9267 111.735 29.5101 111.735 30.135ZM107.234 32.06C107.494 32.06 107.741 32.01 107.976 31.91C108.21 31.81 108.416 31.6725 108.592 31.4975C108.768 31.3225 108.906 31.1184 109.007 30.885C109.107 30.6517 109.158 30.4017 109.158 30.135C109.158 29.8767 109.107 29.6309 109.007 29.3976C108.906 29.1642 108.768 28.9601 108.592 28.7851C108.416 28.6101 108.21 28.4726 107.976 28.3726C107.741 28.2643 107.494 28.2101 107.234 28.2101H101.387C100.817 28.2101 100.28 28.3101 99.777 28.5101C99.2824 28.7101 98.8381 28.9851 98.4441 29.3351C98.0585 29.6767 97.7358 30.085 97.4759 30.56C97.2244 31.0267 97.0609 31.5267 96.9855 32.06H107.234Z" fill="white"/>
<path id="Vector_7" d="M84.901 39.7347H82.3233V28.21H78.4629V25.66H82.3233V20.5352H84.901V25.66H93.917V28.21H84.901V39.7347Z" fill="white"/>
<path id="Vector_8" d="M76.8261 39.7348H63.9498C63.3211 39.7348 62.7343 39.6181 62.1894 39.3848C61.6445 39.1515 61.1666 38.8348 60.7559 38.4348C60.3451 38.0265 60.0224 37.5515 59.7876 37.0099C59.5529 36.4599 59.4355 35.8766 59.4355 35.2599C59.4355 34.6349 59.5529 34.0516 59.7876 33.51C60.0224 32.9683 60.3451 32.4933 60.7559 32.085C61.1666 31.6767 61.6445 31.3558 62.1894 31.1225C62.7343 30.8892 63.3211 30.7725 63.9498 30.7725H72.9531V33.335H63.9498C63.6815 33.335 63.43 33.3891 63.1953 33.4975C62.9606 33.5975 62.7552 33.735 62.5792 33.91C62.4031 34.0849 62.2648 34.2891 62.1642 34.5224C62.0636 34.7558 62.0133 35.0016 62.0133 35.2599C62.0133 35.5266 62.0636 35.7766 62.1642 36.0099C62.2648 36.2349 62.4031 36.4349 62.5792 36.6099C62.7552 36.7849 62.9606 36.9224 63.1953 37.0224C63.43 37.1224 63.6815 37.1724 63.9498 37.1724H74.2483V30.135C74.2483 29.8767 74.1938 29.6309 74.0848 29.3976C73.9843 29.1642 73.8459 28.9601 73.6699 28.7851C73.4938 28.6101 73.2885 28.4726 73.0537 28.3726C72.819 28.2643 72.5717 28.2101 72.3118 28.2101H62.0133V25.6602H72.3118C72.9406 25.6602 73.5274 25.7768 74.0723 26.0101C74.6172 26.2435 75.095 26.5643 75.5058 26.9726C75.9165 27.3726 76.2393 27.8434 76.474 28.3851C76.7087 28.9267 76.8261 29.5101 76.8261 30.135V39.7348Z" fill="white"/>
<path id="Vector_9" d="M39.693 39.7348H37.1152V25.6602H50.6957C51.6681 25.6602 52.5819 25.8477 53.4369 26.2226C54.292 26.5893 55.0339 27.0935 55.6626 27.7351C56.2997 28.3684 56.8027 29.1142 57.1716 29.9726C57.5404 30.8225 57.7248 31.7308 57.7248 32.6975V39.7348H55.1471V32.6975C55.1471 32.0808 55.0297 31.5017 54.795 30.96C54.5603 30.4184 54.2417 29.9476 53.8393 29.5476C53.4369 29.1392 52.9633 28.8184 52.4184 28.5851C51.8819 28.3434 51.3077 28.2184 50.6957 28.2101H48.7089V39.7348H46.1312V28.2101H39.693V39.7348Z" fill="white"/>
</g>
<g id="mate (Stroke)">
<path id="Stroke_6" fill-rule="evenodd" clip-rule="evenodd" d="M111.38 31.8821C111.615 31.3405 111.732 30.7572 111.732 30.1322C111.732 29.5072 111.615 28.9239 111.38 28.3822C111.145 27.8406 110.823 27.3698 110.412 26.9698C110.009 26.5614 109.532 26.2406 108.978 26.0073C108.433 25.774 107.851 25.6573 107.23 25.6573H101.383C100.411 25.6656 99.4972 25.8573 98.6421 26.2323C97.787 26.5989 97.0409 27.1031 96.4038 27.7447L96.2129 27.5574C96.8747 26.891 97.6494 26.3677 98.5348 25.9879C99.4243 25.5979 100.374 25.3993 101.381 25.3906L101.383 25.3906L107.23 25.3906C107.885 25.3906 108.504 25.5139 109.084 25.762C109.667 26.0081 110.174 26.3477 110.602 26.7812C111.037 27.2059 111.379 27.7051 111.626 28.2767C111.876 28.8537 112 29.4731 112 30.1322C112 30.7912 111.876 31.4107 111.626 31.9876C111.379 32.5596 111.037 33.063 110.602 33.4957C110.174 33.9211 109.667 34.2564 109.084 34.5024C108.504 34.7504 107.885 34.8737 107.23 34.8737H97.8129C97.9426 35.0832 98.0895 35.2818 98.2536 35.4697C98.5146 35.7685 98.8064 36.023 99.1291 36.2343C99.4513 36.4452 99.8013 36.6095 100.18 36.7273C100.564 36.8441 100.965 36.9029 101.383 36.9029H110.077V39.9986H101.381C100.374 39.99 99.4252 39.7957 98.5358 39.4143L98.5338 39.4134C97.6496 39.0256 96.8756 38.5031 96.2142 37.8456L96.2117 37.8431C95.5593 37.1773 95.0425 36.404 94.6612 35.5252C94.2772 34.6404 94.0859 33.696 94.0859 32.6946C94.0859 31.6933 94.2772 30.7489 94.6612 29.8641C95.0427 28.9849 95.5598 28.2153 96.2129 27.5574L96.4038 27.7447C95.7751 28.3781 95.2763 29.1197 94.9075 29.9697C94.5386 30.8197 94.3542 31.728 94.3542 32.6946C94.3542 33.6613 94.5386 34.5696 94.9075 35.4196C95.2763 36.2695 95.7751 37.0154 96.4038 37.657C97.0409 38.2903 97.787 38.7945 98.6421 39.1695C99.4972 39.5361 100.411 39.7236 101.383 39.732H109.808V37.1695H101.383C100.939 37.1695 100.512 37.107 100.101 36.982C99.6984 36.857 99.3253 36.682 98.9816 36.457C98.6379 36.232 98.3277 35.9612 98.0511 35.6446C97.8413 35.4044 97.658 35.1475 97.5012 34.8737C97.4513 34.7866 97.4041 34.6977 97.3595 34.6071H107.23C107.851 34.6071 108.433 34.4904 108.978 34.2571C109.532 34.0238 110.009 33.7071 110.412 33.3071C110.823 32.8988 111.145 32.4238 111.38 31.8821ZM107.972 31.9071C107.738 32.0071 107.49 32.0571 107.23 32.0571H96.9823C96.995 31.9673 97.0102 31.8784 97.0279 31.7905C97.1153 31.3563 97.2635 30.9452 97.4727 30.5572C97.7325 30.0822 98.0553 29.6739 98.4409 29.3322C98.8349 28.9822 99.2792 28.7072 99.7738 28.5072C100.277 28.3072 100.813 28.2072 101.383 28.2072H107.23C107.49 28.2072 107.738 28.2614 107.972 28.3697C108.207 28.4697 108.412 28.6072 108.589 28.7822C108.765 28.9572 108.903 29.1614 109.003 29.3947C109.104 29.628 109.154 29.8739 109.154 30.1322C109.154 30.3988 109.104 30.6488 109.003 30.8822C108.903 31.1155 108.765 31.3197 108.589 31.4947C108.412 31.6696 108.207 31.8071 107.972 31.9071ZM99.8743 28.7545C100.344 28.568 100.846 28.4739 101.383 28.4739H107.23C107.452 28.4739 107.66 28.5197 107.859 28.6116L107.863 28.6133L107.867 28.6148C108.071 28.7018 108.248 28.8204 108.399 28.9708C108.55 29.1212 108.669 29.2968 108.757 29.4997C108.843 29.6993 108.886 29.9093 108.886 30.1322C108.886 30.3646 108.842 30.5787 108.757 30.7771C108.669 30.9801 108.55 31.1557 108.399 31.3061C108.248 31.4565 108.071 31.5751 107.867 31.662C107.666 31.7476 107.455 31.7905 107.23 31.7905H97.3018C97.3852 31.4011 97.5209 31.0324 97.7089 30.6835C97.9547 30.2345 98.2583 29.8512 98.6194 29.5313C98.9901 29.202 99.4081 28.9431 99.8743 28.7545Z" fill="white"/>
<path id="Stroke_7" fill-rule="evenodd" clip-rule="evenodd" d="M85.1622 39.9985H82.0479V28.4738H78.1875V25.3905H82.0479V20.2656H85.1622V25.3905H94.1781V28.4738H85.1622V39.9985ZM84.8939 25.6572V20.5323H82.3161V25.6572H78.4558V28.2071H82.3161V39.7318H84.8939V28.2071H93.9098V25.6572H84.8939Z" fill="white"/>
<path id="Stroke_8" fill-rule="evenodd" clip-rule="evenodd" d="M63.9446 39.7319H76.8209V30.1322C76.8209 29.5072 76.7035 28.9239 76.4688 28.3822C76.2341 27.8406 75.9114 27.3697 75.5006 26.9698C75.0898 26.5614 74.612 26.2406 74.0671 26.0073C73.5222 25.7739 72.9354 25.6573 72.3067 25.6573H62.0081V28.2072H72.3067C72.5665 28.2072 72.8138 28.2614 73.0486 28.3697C73.2833 28.4697 73.4887 28.6072 73.6647 28.7822C73.8408 28.9572 73.9791 29.1614 74.0797 29.3947C74.1886 29.628 74.2431 29.8738 74.2431 30.1322V37.1695H63.9446C63.6764 37.1695 63.4249 37.1195 63.1901 37.0195C62.9554 36.9195 62.75 36.782 62.574 36.607C62.3979 36.432 62.2596 36.232 62.159 36.007C62.0584 35.7737 62.0081 35.5237 62.0081 35.257C62.0081 34.9987 62.0584 34.7529 62.159 34.5196C62.2596 34.2862 62.3979 34.0821 62.574 33.9071C62.75 33.7321 62.9554 33.5946 63.1901 33.4946C63.4249 33.3863 63.6764 33.3321 63.9446 33.3321H72.948V30.7697H63.9446C63.3159 30.7697 62.7291 30.8863 62.1842 31.1197C61.6393 31.353 61.1615 31.6738 60.7507 32.0821C60.3399 32.4905 60.0172 32.9654 59.7825 33.5071C59.5477 34.0487 59.4304 34.6321 59.4304 35.257C59.4304 35.8737 59.5477 36.457 59.7825 37.007C60.0172 37.5487 60.3399 38.0236 60.7507 38.432C61.1615 38.832 61.6393 39.1486 62.1842 39.3819C62.7291 39.6153 63.3159 39.7319 63.9446 39.7319ZM62.4049 35.9004C62.3198 35.7023 62.2764 35.4888 62.2764 35.257C62.2764 35.0342 62.3196 34.8241 62.4056 34.6246C62.4931 34.4216 62.6124 34.246 62.7637 34.0956C62.915 33.9453 63.0916 33.8267 63.2958 33.7397L63.2995 33.7381L63.3031 33.7365C63.5011 33.6451 63.7139 33.5988 63.9446 33.5988H73.2162V30.503H63.9446C63.2816 30.503 62.6584 30.6262 62.0781 30.8747C61.5027 31.1211 60.9963 31.4609 60.561 31.8936C60.1257 32.3263 59.7839 32.8296 59.5361 33.4016C59.2861 33.9785 59.1621 34.598 59.1621 35.257C59.1621 35.9083 59.2863 36.5272 59.5355 37.1112L59.5361 37.1125C59.7839 37.6845 60.1257 38.1878 60.561 38.6205L60.563 38.6225C60.9981 39.0462 61.5038 39.381 62.0781 39.6269C62.6584 39.8754 63.2816 39.9986 63.9446 39.9986H77.0892V30.1322C77.0892 29.4731 76.9652 28.8537 76.7152 28.2767C76.4673 27.7047 76.1253 27.205 75.6893 26.7802C75.2542 26.348 74.7482 26.0086 74.1732 25.7624C73.5928 25.5138 72.9697 25.3906 72.3067 25.3906H61.7399V28.4739H72.3067C72.5277 28.4739 72.7364 28.5197 72.9356 28.6116L72.9392 28.6133L72.9429 28.6148C73.1471 28.7018 73.3237 28.8204 73.475 28.9708C73.6263 29.1212 73.7456 29.2968 73.8331 29.4997L73.8347 29.5034L73.8364 29.507C73.9288 29.705 73.9749 29.9125 73.9749 30.1322V36.9028H63.9446C63.7108 36.9028 63.4955 36.8595 63.2958 36.7744C63.0916 36.6874 62.915 36.5688 62.7637 36.4185C62.6112 36.2669 62.492 36.0946 62.4049 35.9004Z" fill="white"/>
<path id="Stroke_9" fill-rule="evenodd" clip-rule="evenodd" d="M39.6898 39.7319V28.2072H46.1279V39.7319H48.7057V28.2072H50.6925C51.3044 28.2156 51.8787 28.3406 52.4152 28.5822C52.9601 28.8155 53.4337 29.1364 53.8361 29.5447C54.2385 29.9447 54.557 30.4155 54.7918 30.9572C55.0265 31.4988 55.1438 32.078 55.1438 32.6946V39.7319H57.7216V32.6946C57.7216 31.728 57.5372 30.8197 57.1683 29.9697C56.7995 29.1114 56.2965 28.3656 55.6594 27.7322C55.0307 27.0906 54.2888 26.5864 53.4337 26.2198C52.5786 25.8448 51.6649 25.6573 50.6925 25.6573H37.112V39.7319H39.6898ZM53.541 25.9754C52.6507 25.5851 51.7003 25.3906 50.6925 25.3906H36.8438V39.9986H39.958V28.4739H45.8597V39.9986H48.974V28.4739H50.6906C51.2664 28.482 51.8034 28.5994 52.3045 28.8251L52.3091 28.8271C52.8229 29.0472 53.2673 29.3485 53.6445 29.7313L53.6464 29.7332C54.0238 30.1084 54.3235 30.5507 54.5454 31.0627C54.765 31.5695 54.8756 32.1126 54.8756 32.6946V39.9986H57.9899V32.6946C57.9899 31.6935 57.7987 30.7492 57.4149 29.8645C57.0334 28.977 56.512 28.2029 55.8503 27.5449C55.1968 26.8783 54.4262 26.3551 53.541 25.9754Z" fill="white"/>
</g>
<path id="Vector 400 (Stroke)" fill-rule="evenodd" clip-rule="evenodd" d="M111.916 7.01973L100.356 19.947L94.2988 12.254L96.4113 10.6105L100.487 15.7869L109.911 5.24805L111.916 7.01973Z" fill="#5BFB67"/>
</g>
</svg>