<svg width="327" height="173" viewBox="0 0 327 173" fill="none" xmlns="http://www.w3.org/2000/svg">
<rect x="0.5" y="0.5" width="204.958" height="111.094" rx="9.5" fill="#F2F2F2" stroke="#323232"/>
<rect x="7.49854" y="6.50586" width="190.96" height="98.0828" rx="5.5" fill="#ACCDFF" stroke="#323232"/>
<rect x="0.5" y="119.6" width="204.958" height="16.0142" rx="8.00711" fill="#323232" stroke="#323232"/>
<path d="M246.374 147.503L246.825 102.988L240.655 106.064L238.762 140.781C238.685 142.177 237.231 143.061 235.89 142.664C228.367 140.436 223.66 143.988 220.881 149.006C217.686 154.774 223.823 160.224 230.277 158.883L238.412 157.193C243.013 156.238 246.327 152.205 246.374 147.503Z" fill="white" stroke="#323232"/>
<path d="M252.377 147.525L247.88 103.144L253.947 98.082L259.476 139.998C259.662 141.407 261.222 142.174 262.535 141.631C270.008 138.539 275.105 141.716 278.35 146.55C281.981 151.959 276.492 157.903 270.009 157.29L261.381 156.474C256.63 156.024 252.859 152.276 252.377 147.525Z" fill="white" stroke="#323232"/>
<path d="M201.06 94.5921L222.52 116.734C223.155 117.388 224.151 117.531 224.943 117.081L323.316 61.2905C323.973 60.9176 324.364 60.2058 324.326 59.4508L321.995 13.0572C321.909 11.3501 319.86 10.53 318.62 11.7066L235.856 90.2638C235.044 91.0347 233.757 90.9884 233.002 90.1611L217.397 73.0619C216.538 72.1215 215.032 72.2114 214.292 73.2472L200.868 92.0375C200.307 92.8234 200.387 93.8984 201.06 94.5921Z" fill="white" stroke="#323232"/>
<path d="M67.346 47.3438C67.237 46.9838 67.2479 46.6237 67.3787 46.2637C67.3351 45.7766 67.3133 45.406 67.3133 45.1519C67.2915 44.7919 67.2479 44.2942 67.1825 43.6589C67.1389 43.0236 67.0953 42.4835 67.0517 42.0388C67.0081 41.5941 66.9863 41.0858 66.9863 40.514C67.0081 39.9422 67.0626 39.434 67.1498 38.9892C67.2588 38.4386 67.4985 37.9727 67.8691 37.5915C68.2396 37.2103 68.6428 36.9244 69.0788 36.7338C69.5147 36.5432 70.0596 36.395 70.7135 36.2891C71.3891 36.1832 71.9667 36.1303 72.4463 36.1303C72.9476 36.1091 73.547 36.0985 74.2444 36.0985C74.9637 36.0773 75.4759 36.0562 75.7811 36.035C76.6311 35.9926 77.2305 36.3103 77.5792 36.988C77.9498 37.6445 77.9498 38.3327 77.5792 39.0528C77.2305 39.7516 76.6311 40.1328 75.7811 40.1964C75.6939 40.1964 75.465 40.1964 75.0945 40.1964C74.7457 40.1964 74.3752 40.1964 73.9829 40.1964C73.6123 40.1964 73.22 40.207 72.8059 40.2281C72.3918 40.2493 72.0321 40.2917 71.727 40.3552C71.4436 40.3976 71.2802 40.4505 71.2366 40.514C71.193 40.5776 71.1821 40.7893 71.2039 41.1494C71.2257 41.4882 71.2584 41.8376 71.302 42.1976C71.3456 42.5365 71.3891 42.9071 71.4327 43.3095C71.4763 43.6906 71.509 43.9342 71.5308 44.0401C71.5308 44.1883 71.5308 44.3048 71.5308 44.3895C71.7924 44.3472 72.1738 44.2836 72.6751 44.1989C73.1764 44.1142 73.547 44.0507 73.7867 44.0083C74.3752 43.9024 74.9201 43.9765 75.4214 44.2307C75.9227 44.4848 76.2606 44.8872 76.4349 45.4378C76.5657 45.9672 76.4785 46.5073 76.1734 47.0579C75.89 47.5873 75.4759 47.905 74.931 48.0109C73.6232 48.2438 72.5552 48.4238 71.727 48.5509C71.7488 49.038 71.7706 49.7792 71.7924 50.7745C71.836 51.7699 71.8687 52.5217 71.8905 53.0299C71.934 53.8558 71.6071 54.4488 70.9096 54.8088C70.2122 55.1477 69.5038 55.1477 68.7845 54.8088C68.0652 54.4488 67.6947 53.8558 67.6729 53.0299C67.5857 51.7593 67.4985 49.938 67.4114 47.5661C67.4114 47.545 67.4005 47.5238 67.3787 47.5026C67.3569 47.4391 67.346 47.3861 67.346 47.3438ZM83.4642 45.6919C84.4886 45.7131 85.4041 45.639 86.2105 45.4696C86.799 45.3637 87.3439 45.4378 87.8452 45.6919C88.3465 45.9461 88.6735 46.359 88.826 46.9308C88.9786 47.4602 88.9023 47.9897 88.5972 48.5191C88.3138 49.0486 87.8888 49.3556 87.3221 49.4403C86.0361 49.6945 84.8483 49.8109 83.7584 49.7898C83.802 50.2768 83.8565 50.9863 83.9219 51.9181C83.9873 52.8499 84.0309 53.5488 84.0527 54.0147C84.1181 54.8406 83.802 55.4336 83.1046 55.7936C82.4289 56.1324 81.7205 56.1324 80.9794 55.7936C80.2602 55.4336 79.8678 54.8406 79.8024 54.0147C79.3883 48.085 79.0614 43.5636 78.8216 40.4505C78.7998 39.9211 79.0178 39.434 79.4755 38.9892C79.9332 38.5233 80.4345 38.3222 80.9794 38.3857C83.8783 38.6822 86.8535 38.6928 89.905 38.4175C90.755 38.3327 91.3544 38.6186 91.7031 39.2751C92.0737 39.9316 92.0737 40.6199 91.7031 41.3399C91.3544 42.06 90.755 42.4624 89.905 42.5471C87.6818 42.7588 85.4694 42.8118 83.268 42.7059C83.3552 44.0401 83.4206 45.0354 83.4642 45.6919Z" fill="#2F7CEF"/>
<path d="M60.9359 38.5479C62.5742 39.3841 63.8352 40.6276 64.719 42.2785C65.6243 43.9294 66.0447 45.6982 65.98 47.585C65.9369 49.4503 65.4519 51.1762 64.525 52.7628C63.6627 54.1993 62.434 55.282 60.8389 56.011C59.2653 56.7614 57.6055 57.1044 55.8594 57.0401C54.135 56.9758 52.5506 56.5363 51.1063 55.7215C50.007 55.1212 49.0585 54.3172 48.2609 53.3095C47.4633 52.3018 46.8706 51.2191 46.4825 50.0613C46.1161 48.9035 45.9544 47.6922 45.9975 46.4272C46.0622 45.1408 46.3424 43.9294 46.8382 42.7931C47.3771 41.6139 48.1208 40.5847 49.0693 39.7057C50.0393 38.8267 51.0955 38.1727 52.238 37.7439C53.402 37.3151 54.6307 37.0793 55.9241 37.0364C57.239 36.9935 58.4893 37.2186 59.6749 37.7118C60.0844 37.8618 60.4078 38.1084 60.6449 38.4514C60.7958 38.4943 60.8928 38.5265 60.9359 38.5479ZM60.8066 50.608C61.4101 49.6861 61.7335 48.6677 61.7766 47.5528C61.8413 46.4165 61.6041 45.3659 61.0652 44.4011C60.5263 43.4149 59.7719 42.6644 58.8018 42.1499C58.5001 41.9998 58.2629 41.8176 58.0905 41.6032C57.142 41.3459 56.2151 41.2494 55.3098 41.3137C54.4044 41.3566 53.5422 41.6353 52.723 42.1499C51.9039 42.643 51.268 43.3291 50.8153 44.2081C50.1686 45.4302 50.007 46.7917 50.3303 48.2925C50.6752 49.7719 51.4189 50.9082 52.5614 51.7015C53.402 52.3018 54.3505 52.677 55.4068 52.8271C56.463 52.9557 57.4869 52.8378 58.4785 52.4733C59.4701 52.0874 60.2461 51.4656 60.8066 50.608Z" fill="#2F7CEF"/>
<path d="M155.866 69.0815C156.868 68.9542 157.525 69.3149 157.837 70.1637C158.104 70.97 157.96 71.7127 157.403 72.3918C157.024 72.8586 156.512 73.1345 155.866 73.2193C155.42 73.283 154.763 73.3891 153.895 73.5376C153.026 73.665 152.335 73.7711 151.823 73.8559C151.333 73.9196 150.654 73.9832 149.785 74.0469C148.916 74.0893 148.259 74.0469 147.814 73.9196C147.48 73.8772 147.157 73.7074 146.845 73.4103C146.555 73.1132 146.366 72.8056 146.277 72.4873C146.143 71.8931 146.076 71.2565 146.076 70.5775C146.076 69.8984 146.11 69.1345 146.177 68.2857C146.243 67.4157 146.277 66.7685 146.277 66.3441C146.299 64.1797 146.199 61.8774 145.976 59.4371C145.932 58.8005 146.121 58.3019 146.544 57.9411C146.923 57.3257 147.513 57.0287 148.315 57.0499C150.386 57.1135 152.469 57.156 154.563 57.1772C155.097 57.1772 155.543 57.3257 155.899 57.6228C156.278 57.8987 156.501 58.2382 156.568 58.6414C156.657 59.0445 156.657 59.4477 156.568 59.8509C156.501 60.2541 156.278 60.6042 155.899 60.9013C155.543 61.1771 155.097 61.3151 154.563 61.3151C153.917 61.3151 152.547 61.2832 150.453 61.2196C150.498 61.9198 150.542 62.6095 150.587 63.2885H152.525C152.926 63.2885 153.293 63.384 153.627 63.575C153.961 63.7659 154.218 64.0206 154.396 64.3389C154.596 64.6572 154.696 64.9967 154.696 65.3574C154.719 65.9091 154.507 66.3972 154.062 66.8216C153.616 67.2248 153.104 67.4263 152.525 67.4263H150.52C150.386 68.5934 150.331 69.4422 150.353 69.9727C151.043 69.9303 152.046 69.7817 153.36 69.5271C154.696 69.2725 155.532 69.1239 155.866 69.0815Z" fill="#2F7CEF"/>
<path d="M140.704 58.0901C140.704 57.5712 140.857 57.1387 141.164 56.7928C141.47 56.4252 141.831 56.1982 142.247 56.1117C142.662 56.0253 143.078 56.0253 143.493 56.1117C143.909 56.1982 144.259 56.4252 144.543 56.7928C144.828 57.1387 144.97 57.5712 144.97 58.0901C144.904 61.744 144.718 65.2034 144.412 68.4681C144.39 68.706 144.368 69.1167 144.347 69.7005C144.325 70.2627 144.292 70.7059 144.248 71.0302C144.204 71.3545 144.128 71.7437 144.018 72.1977C143.931 72.6302 143.767 73.0193 143.526 73.3653C143.307 73.6896 143.034 73.9815 142.706 74.2409C142.356 74.4355 141.984 74.5328 141.59 74.5328C141.218 74.5112 140.868 74.4139 140.54 74.2409C140.168 74.0463 139.807 73.8085 139.457 73.5274C139.107 73.2464 138.725 72.8896 138.309 72.4572C137.915 72.0031 137.62 71.6788 137.423 71.4842C137.248 71.268 136.92 70.8464 136.439 70.2194C135.957 69.5924 135.695 69.2465 135.651 69.1816C135.235 68.6411 134.787 68.0357 134.306 67.3655C134.24 69.2681 134.229 71.1383 134.273 72.9761C134.317 73.9707 133.879 74.6193 132.96 74.922C132.129 75.2031 131.385 75.0625 130.729 74.5004C130.27 74.1328 130.029 73.6247 130.007 72.9761C129.898 69.1059 130.051 65.2466 130.467 61.3981C130.576 60.5548 130.948 59.9495 131.582 59.5819C132.217 59.1927 132.917 59.1819 133.682 59.5495C134.229 59.8305 134.7 60.1981 135.093 60.6521C135.487 61.1062 135.903 61.744 136.34 62.5656C136.8 63.3872 137.095 63.9061 137.226 64.1223C138.714 66.3925 139.764 67.8735 140.376 68.5654C140.507 67.5492 140.595 66.3817 140.639 65.0628C140.682 63.7223 140.693 62.5332 140.671 61.4954C140.671 60.4359 140.682 59.3008 140.704 58.0901Z" fill="#2F7CEF"/>
<path d="M127.651 60.1662C127.537 63.7802 127.64 67.3943 127.958 71.0084C128.049 71.8638 127.731 72.4626 127.003 72.8048C126.297 73.1469 125.558 73.1469 124.784 72.8048C124.01 72.4412 123.589 71.8424 123.521 71.0084C123.202 67.3943 123.088 63.7802 123.179 60.1662C123.202 59.3108 123.589 58.712 124.34 58.3698C125.091 58.0063 125.831 58.0063 126.559 58.3698C127.31 58.712 127.674 59.3108 127.651 60.1662ZM126.73 56.5735C126.365 57.0012 125.842 57.215 125.159 57.215C124.477 57.215 123.942 57.0012 123.555 56.5735C123.168 56.1458 122.975 55.6753 122.975 55.162C122.975 54.6274 123.168 54.1463 123.555 53.7186C123.942 53.2695 124.477 53.0449 125.159 53.0449C125.842 53.0449 126.365 53.2695 126.73 53.7186C127.116 54.1463 127.31 54.6274 127.31 55.162C127.31 55.6753 127.116 56.1458 126.73 56.5735Z" fill="#2F7CEF"/>
<path d="M120.929 70.7756C121.457 70.7756 121.897 70.9249 122.249 71.2234C122.623 71.5007 122.843 71.8419 122.909 72.2471C122.997 72.6523 122.997 73.0575 122.909 73.4627C122.843 73.8679 122.623 74.2198 122.249 74.5184C121.897 74.7956 121.457 74.9342 120.929 74.9342C120.577 74.9342 120.082 74.9556 119.444 74.9982C118.828 75.0196 118.311 75.0409 117.893 75.0622C117.497 75.0622 117.012 75.0515 116.44 75.0302C115.89 74.9876 115.428 74.9023 115.054 74.7743C114.68 74.6463 114.295 74.4757 113.899 74.2625C113.525 74.0279 113.228 73.708 113.008 73.3028C112.788 72.8762 112.634 72.3751 112.546 71.7992C112.304 70.2851 112.139 68.5576 112.051 66.6169C111.985 64.6549 111.963 62.8848 111.985 61.3066C112.029 59.7071 112.029 57.9583 111.985 56.0603C111.985 55.5484 112.128 55.1219 112.414 54.7807C112.7 54.4181 113.052 54.1942 113.47 54.1089C113.888 54.0236 114.306 54.0236 114.724 54.1089C115.142 54.1942 115.505 54.4181 115.813 54.7807C116.121 55.1219 116.275 55.5484 116.275 56.0603C116.341 59.5152 116.429 62.7355 116.539 65.7212C116.561 65.8705 116.55 66.201 116.506 66.7129C116.484 67.2034 116.462 67.6619 116.44 68.0884C116.44 68.515 116.451 68.9522 116.473 69.4C116.517 69.8265 116.605 70.1038 116.737 70.2318C116.935 70.4663 117.222 70.637 117.596 70.7436C117.97 70.8289 118.311 70.8715 118.619 70.8715C118.927 70.8715 119.334 70.8609 119.84 70.8396C120.368 70.7969 120.731 70.7756 120.929 70.7756Z" fill="#2F7CEF"/>
<path d="M98.9554 63.0538C99.7839 63.0313 100.368 63.3792 100.708 64.0974C101.069 64.8155 101.069 65.5449 100.708 66.2856C100.368 67.0262 99.7839 67.4077 98.9554 67.4302C96.2999 67.5199 93.6657 67.7219 91.0527 68.0361C90.5216 68.1259 90.0436 67.9239 89.6188 67.4302C89.1939 66.9364 88.9814 66.409 88.9814 65.8479C88.9814 65.242 89.1726 64.7482 89.555 64.3667C89.9587 63.9851 90.4579 63.7495 91.0527 63.6597C93.687 63.3231 96.3212 63.1211 98.9554 63.0538Z" fill="#2F7CEF"/>
<rect x="0.704834" y="-0.0371836" width="3.00149" height="82.0217" rx="1.5" transform="matrix(0.667515 -0.744597 0.742154 0.670229 148.232 40.5458)" fill="#5BFB67" stroke="#323232"/>
</svg>
