<svg width="1780" height="1432" viewBox="0 0 1780 1432" fill="none" xmlns="http://www.w3.org/2000/svg">
<path d="M604.764 235.025L1026.47 122.113C1079.81 107.831 1134.62 139.487 1148.91 192.826L1192.01 353.708C1206.3 407.055 1174.64 461.892 1121.29 476.189L471.005 650.472C417.659 664.769 385.999 719.606 400.29 772.953L487.841 1099.77C502.133 1153.12 556.963 1184.78 610.309 1170.48L1704.69 877.176" stroke="#64FF6F" stroke-width="2" stroke-dasharray="6 6"/>
<path d="M939.418 517.895L951.189 521.535L942.1 529.946L943.952 523.26L944.026 522.996L943.842 522.792L939.418 517.895Z" fill="#64FF6F" stroke="#64FF6F"/>
<path d="M939.418 1074.9L951.189 1078.54L942.1 1086.95L943.952 1080.26L944.026 1080L943.842 1079.79L939.418 1074.9Z" fill="#64FF6F" stroke="#64FF6F"/>
<path d="M419.34 820.013L415.988 831.87L407.359 822.989L414.087 824.678L414.354 824.744L414.553 824.555L419.34 820.013Z" fill="#64FF6F" stroke="#64FF6F"/>
<path d="M985.418 125.895L997.189 129.535L988.1 137.946L989.952 131.26L990.026 130.996L989.842 130.792L985.418 125.895Z" fill="#64FF6F" stroke="#64FF6F"/>
<rect opacity="0.5" x="359.503" y="173" width="681" height="681" rx="10" transform="rotate(31.864 359.503 173)" fill="url(#paint0_radial_565_21953)" fill-opacity="0.5"/>
<circle opacity="0.7" cx="1295.5" cy="141" r="371" fill="url(#paint1_radial_565_21953)" fill-opacity="0.5"/>
<path opacity="0.7" d="M1126.18 591.229C1127.17 583.594 1136.05 579.892 1142.17 584.564L1643.91 967.755C1650.03 972.428 1648.79 981.971 1641.69 984.933L1058.96 1227.86C1051.86 1230.82 1044.21 1224.98 1045.2 1217.35L1126.18 591.229Z" fill="url(#paint2_radial_565_21953)" fill-opacity="0.5"/>
<path d="M1186.16 707.017L1231.29 796.046C1231.82 797.095 1233.14 797.461 1234.13 796.837L1526.03 613.888C1527.44 613.004 1527.22 610.882 1525.65 610.314L1423.9 573.398C1423.23 573.152 1422.47 573.29 1421.92 573.758L1248.82 721.858C1247.87 722.667 1246.42 722.424 1245.79 721.35L1219.01 675.7C1218.34 674.57 1216.79 674.373 1215.87 675.3L1186.53 704.7C1185.92 705.312 1185.77 706.246 1186.16 707.017Z" fill="#2F7CEF" stroke="white" stroke-width="4"/>
<path d="M1287.85 827.594L1262.65 778.691L1278.17 769L1308.1 827.711C1309.56 830.583 1309.55 833.984 1308.07 836.847L1293.61 864.814C1292.67 866.618 1294.81 868.605 1296.63 867.701C1327.81 852.21 1346.23 872.729 1354.52 892.022C1357.07 897.952 1352.31 904 1345.86 904H1268.28C1260.7 904 1255.88 895.907 1259.48 889.245L1287.76 836.93C1289.33 834.024 1289.37 830.53 1287.85 827.594Z" fill="#2F7CEF" stroke="white" stroke-width="4"/>
<path d="M1408.07 829.55L1297.5 757.268L1313.39 748L1397.3 797.664C1398.51 798.379 1400.06 797.63 1400.36 796.257C1407.79 761.518 1437.57 764.07 1458.86 772.595C1464.94 775.031 1465.98 782.794 1461.35 787.434L1420.62 828.244C1417.27 831.597 1412.03 832.142 1408.07 829.55Z" fill="#2F7CEF" stroke="white" stroke-width="4"/>
<path d="M1403.59 544.68L1397.1 503.119" stroke="#64FF6F" stroke-width="14"/>
<path d="M1451.17 536.628L1466.42 462.74" stroke="#64FF6F" stroke-width="14"/>
<path d="M1482.39 560.744L1540.5 512.656" stroke="#64FF6F" stroke-width="14"/>
<g filter="url(#filter0_bf_565_21953)">
<path d="M1160.39 995.658L1212.23 956.568C1212.7 956.208 1213.31 956.081 1213.9 956.22L1555.19 1037.98C1557.34 1038.5 1557.19 1041.6 1555 1041.91L1439.42 1057.94C1439.11 1057.98 1438.81 1057.95 1438.52 1057.86L1231.35 990.111C1230.78 989.923 1230.15 990.006 1229.64 990.337L1196.54 1011.9C1196 1012.25 1195.33 1012.32 1194.73 1012.09L1160.87 999.122C1159.41 998.56 1159.13 996.604 1160.39 995.658Z" fill="#2064C9" fill-opacity="0.6"/>
<path d="M1270.62 948.639L1249.01 964.621L1267.41 969L1294.88 948.473C1300.25 944.456 1300.22 936.39 1294.82 932.411L1289.66 928.607C1287.9 927.316 1289.23 924.402 1291.37 924.779C1318.58 929.557 1337.37 925.427 1349.04 919.409C1356.02 915.815 1352.54 908 1344.7 908H1267.33C1257.57 908 1253.59 920.551 1261.57 926.174L1270.44 932.424C1276.01 936.352 1276.11 944.585 1270.62 948.639Z" fill="#2064C9" fill-opacity="0.6"/>
<path d="M1426.49 940.765L1290.34 974.797L1309.18 979L1410.07 956.169C1411 955.958 1411.94 956.447 1412.42 957.276C1419.27 969.18 1441.4 971.314 1462.68 969.941C1472.57 969.303 1473.78 956.945 1464.52 953.4L1432.49 941.128C1430.57 940.394 1428.48 940.267 1426.49 940.765Z" fill="#2064C9" fill-opacity="0.6"/>
</g>
<defs>
<filter id="filter0_bf_565_21953" x="1155.59" y="904" width="405.139" height="157.955" filterUnits="userSpaceOnUse" color-interpolation-filters="sRGB">
<feFlood flood-opacity="0" result="BackgroundImageFix"/>
<feGaussianBlur in="BackgroundImageFix" stdDeviation="2"/>
<feComposite in2="SourceAlpha" operator="in" result="effect1_backgroundBlur_565_21953"/>
<feBlend mode="normal" in="SourceGraphic" in2="effect1_backgroundBlur_565_21953" result="shape"/>
<feGaussianBlur stdDeviation="2" result="effect2_foregroundBlur_565_21953"/>
</filter>
<radialGradient id="paint0_radial_565_21953" cx="0" cy="0" r="1" gradientUnits="userSpaceOnUse" gradientTransform="translate(700.003 513.5) rotate(95.0078) scale(517.651)">
<stop offset="0.132052" stop-color="#2F7CEF"/>
<stop offset="1" stop-color="white" stop-opacity="0.5"/>
</radialGradient>
<radialGradient id="paint1_radial_565_21953" cx="0" cy="0" r="1" gradientUnits="userSpaceOnUse" gradientTransform="translate(1295.5 141) rotate(95.0078) scale(564.019)">
<stop offset="0.132052" stop-color="#2F7CEF"/>
<stop offset="1" stop-color="white" stop-opacity="0.5"/>
</radialGradient>
<radialGradient id="paint2_radial_565_21953" cx="0" cy="0" r="1" gradientUnits="userSpaceOnUse" gradientTransform="translate(1276.35 928.947) rotate(72.3775) scale(584.543)">
<stop offset="0.132052" stop-color="#2F7CEF"/>
<stop offset="1" stop-color="white" stop-opacity="0.5"/>
</radialGradient>
</defs>
</svg>
