<svg width="324" height="168" viewBox="0 0 324 168" fill="none" xmlns="http://www.w3.org/2000/svg">
<rect x="0.5" y="0.5" width="323" height="167" rx="9.5" fill="#ACCDFF" stroke="#323232"/>
<circle cx="21" cy="18" r="5.5" fill="#2F7CEF" stroke="#323232"/>
<circle cx="39" cy="18" r="5.5" fill="#5BFB67" stroke="#323232"/>
<circle cx="57" cy="18" r="5.5" fill="#F8F8F8" stroke="#323232"/>
<path d="M11 32H314" stroke="black"/>
<path d="M149.649 73.5572L167.045 108.037C167.576 109.09 168.898 109.457 169.896 108.828L285.547 36.0028C286.954 35.1169 286.729 33.0008 285.167 32.4314L246.678 18.4011C245.998 18.1534 245.238 18.292 244.689 18.7635L175.848 77.9368C174.901 78.751 173.448 78.5073 172.818 77.4287L163.414 61.3265C162.751 60.1921 161.193 59.9937 160.268 60.9257L150.016 71.2469C149.409 71.8578 149.262 72.7884 149.649 73.5572Z" fill="white" stroke="black"/>
<path d="M189.483 119.056L180.585 101.948L186.966 98L197.861 119.175C199.348 122.064 199.337 125.497 197.833 128.378L195.299 133.232C194.359 135.032 196.578 137.214 198.532 136.66C205.68 134.634 210.912 137.471 214.477 141.712C218.635 146.66 213.791 153 207.328 153H192.848C185.257 153 180.434 144.874 184.07 138.21L189.39 128.46C190.985 125.537 191.02 122.011 189.483 119.056Z" fill="white" stroke="black"/>
<path d="M235.657 119.507L195 92.772L201.427 89L233.882 108.321C235.091 109.04 236.646 108.307 237.037 106.956C239.627 98.0171 246.309 96.1118 252.933 96.9987C259.408 97.8657 260.52 105.829 255.919 110.466L248.25 118.195C244.899 121.572 239.633 122.121 235.657 119.507Z" fill="white" stroke="black"/>
<circle cx="37" cy="129" r="21.5" fill="black" stroke="#323232"/>
<circle cx="77" cy="135" r="15.5" fill="#E4E4E4" stroke="#323232"/>
<rect x="30.3" y="116.3" width="13.4" height="17.4" rx="3.7" fill="white" stroke="#323232" stroke-width="0.6"/>
<rect x="29.3" y="136.3" width="15.4" height="4.4" rx="1.7" fill="white" stroke="#323232" stroke-width="0.6"/>
<rect x="67.3" y="130.3" width="14.4" height="9.4" rx="1.7" fill="white" stroke="#323232" stroke-width="0.6"/>
<rect x="83.3" y="131.3" width="4.4" height="7.4" rx="1.7" fill="white" stroke="#323232" stroke-width="0.6"/>
</svg>
