<svg width="24" height="24" viewBox="0 0 24 24" fill="none" xmlns="http://www.w3.org/2000/svg">
<rect x="4.5" y="9.5" width="15" height="10" stroke="#A3A3A3"/>
<rect x="4.5" y="9.5" width="15" height="10" stroke="black" stroke-opacity="0.2"/>
<rect x="4.5" y="9.5" width="15" height="10" stroke="black" stroke-opacity="0.2"/>
<rect x="4.5" y="9.5" width="15" height="10" stroke="black" stroke-opacity="0.2"/>
<path fill-rule="evenodd" clip-rule="evenodd" d="M5 4H6V6H18V4H19V6H20V9H19H18H6H5H4V6H5V4Z" fill="#A3A3A3"/>
<path fill-rule="evenodd" clip-rule="evenodd" d="M5 4H6V6H18V4H19V6H20V9H19H18H6H5H4V6H5V4Z" fill="black" fill-opacity="0.2"/>
<path fill-rule="evenodd" clip-rule="evenodd" d="M5 4H6V6H18V4H19V6H20V9H19H18H6H5H4V6H5V4Z" fill="black" fill-opacity="0.2"/>
<path fill-rule="evenodd" clip-rule="evenodd" d="M5 4H6V6H18V4H19V6H20V9H19H18H6H5H4V6H5V4Z" fill="black" fill-opacity="0.2"/>
<circle cx="7.5" cy="12" r="1" fill="#A3A3A3"/>
<circle cx="7.5" cy="12" r="1" fill="black" fill-opacity="0.2"/>
<circle cx="7.5" cy="12" r="1" fill="black" fill-opacity="0.2"/>
<circle cx="7.5" cy="12" r="1" fill="black" fill-opacity="0.2"/>
<circle cx="7.5" cy="17" r="1" fill="#A3A3A3"/>
<circle cx="7.5" cy="17" r="1" fill="black" fill-opacity="0.2"/>
<circle cx="7.5" cy="17" r="1" fill="black" fill-opacity="0.2"/>
<circle cx="7.5" cy="17" r="1" fill="black" fill-opacity="0.2"/>
<circle cx="16.5" cy="12" r="1" fill="#A3A3A3"/>
<circle cx="16.5" cy="12" r="1" fill="black" fill-opacity="0.2"/>
<circle cx="16.5" cy="12" r="1" fill="black" fill-opacity="0.2"/>
<circle cx="16.5" cy="12" r="1" fill="black" fill-opacity="0.2"/>
<circle cx="16.5" cy="17" r="1" fill="#A3A3A3"/>
<circle cx="16.5" cy="17" r="1" fill="black" fill-opacity="0.2"/>
<circle cx="16.5" cy="17" r="1" fill="black" fill-opacity="0.2"/>
<circle cx="16.5" cy="17" r="1" fill="black" fill-opacity="0.2"/>
<circle cx="12" cy="12" r="1" fill="#A3A3A3"/>
<circle cx="12" cy="12" r="1" fill="black" fill-opacity="0.2"/>
<circle cx="12" cy="12" r="1" fill="black" fill-opacity="0.2"/>
<circle cx="12" cy="12" r="1" fill="black" fill-opacity="0.2"/>
<circle cx="12" cy="17" r="1" fill="#A3A3A3"/>
<circle cx="12" cy="17" r="1" fill="black" fill-opacity="0.2"/>
<circle cx="12" cy="17" r="1" fill="black" fill-opacity="0.2"/>
<circle cx="12" cy="17" r="1" fill="black" fill-opacity="0.2"/>
</svg>
