<svg width="24" height="24" viewBox="0 0 24 24" fill="none" xmlns="http://www.w3.org/2000/svg">
<circle cx="6" cy="7" r="2.5" fill="#A3A3A3"/>
<circle cx="6" cy="7" r="2.5" fill="black" fill-opacity="0.2"/>
<circle cx="6" cy="7" r="2.5" fill="black" fill-opacity="0.2"/>
<circle cx="6" cy="7" r="2.5" fill="black" fill-opacity="0.2"/>
<circle cx="6" cy="7" r="2.5" stroke="#A3A3A3"/>
<circle cx="6" cy="7" r="2.5" stroke="black" stroke-opacity="0.2"/>
<circle cx="6" cy="7" r="2.5" stroke="black" stroke-opacity="0.2"/>
<circle cx="6" cy="7" r="2.5" stroke="black" stroke-opacity="0.2"/>
<circle cx="18" cy="7" r="2.5" fill="#A3A3A3"/>
<circle cx="18" cy="7" r="2.5" fill="black" fill-opacity="0.2"/>
<circle cx="18" cy="7" r="2.5" fill="black" fill-opacity="0.2"/>
<circle cx="18" cy="7" r="2.5" fill="black" fill-opacity="0.2"/>
<circle cx="18" cy="7" r="2.5" stroke="#A3A3A3"/>
<circle cx="18" cy="7" r="2.5" stroke="black" stroke-opacity="0.2"/>
<circle cx="18" cy="7" r="2.5" stroke="black" stroke-opacity="0.2"/>
<circle cx="18" cy="7" r="2.5" stroke="black" stroke-opacity="0.2"/>
<rect x="4.5" y="4.5" width="15" height="15" rx="7.5" fill="white"/>
<rect x="4.5" y="4.5" width="15" height="15" rx="7.5" stroke="#A3A3A3"/>
<rect x="4.5" y="4.5" width="15" height="15" rx="7.5" stroke="black" stroke-opacity="0.2"/>
<rect x="4.5" y="4.5" width="15" height="15" rx="7.5" stroke="black" stroke-opacity="0.2"/>
<rect x="4.5" y="4.5" width="15" height="15" rx="7.5" stroke="black" stroke-opacity="0.2"/>
<path d="M12 7V12H17" stroke="#A3A3A3" stroke-linecap="round"/>
<path d="M12 7V12H17" stroke="black" stroke-opacity="0.2" stroke-linecap="round"/>
<path d="M12 7V12H17" stroke="black" stroke-opacity="0.2" stroke-linecap="round"/>
<path d="M12 7V12H17" stroke="black" stroke-opacity="0.2" stroke-linecap="round"/>
</svg>
